<svg width="379" height="368" viewBox="0 0 379 368" fill="none" xmlns="http://www.w3.org/2000/svg">
<path fill-rule="evenodd" clip-rule="evenodd" d="M13.3442 208.29C15.7831 204.942 20.4743 204.205 23.8223 206.644L218.02 348.111C221.368 350.55 222.105 355.241 219.666 358.589C217.227 361.937 212.536 362.674 209.188 360.235L14.9903 218.768C11.6423 216.329 10.9053 211.638 13.3442 208.29Z" fill="white"/>
<path fill-rule="evenodd" clip-rule="evenodd" d="M155.266 6.05877C157.681 2.6934 162.367 1.92287 165.732 4.33773L366.301 148.259C369.666 150.673 370.437 155.359 368.022 158.725C365.607 162.09 360.921 162.86 357.556 160.446L156.987 16.5248C153.622 14.1099 152.851 9.42414 155.266 6.05877Z" fill="white"/>
<path fill-rule="evenodd" clip-rule="evenodd" d="M213.051 362.942C209.688 360.525 208.921 355.839 211.338 352.475L356.467 150.545C358.884 147.182 363.571 146.415 366.934 148.832C370.298 151.249 371.065 155.936 368.647 159.299L223.519 361.229C221.101 364.593 216.415 365.36 213.051 362.942Z" fill="white"/>
<path fill-rule="evenodd" clip-rule="evenodd" d="M164.955 4.81666C168.283 7.28239 168.982 11.9794 166.516 15.3076L20.3653 212.585C17.8996 215.914 13.2026 216.613 9.87431 214.147C6.54603 211.682 5.84677 206.985 8.3125 203.656L154.464 6.37847C156.929 3.05018 161.626 2.35094 164.955 4.81666Z" fill="white"/>
<path fill-rule="evenodd" clip-rule="evenodd" d="M192.752 227.172C243.502 218.888 292.873 193.538 355.914 148.227C359.277 145.81 363.964 146.577 366.381 149.94C368.799 153.304 368.032 157.99 364.668 160.407C300.951 206.205 249.32 233.137 195.169 241.976C140.95 250.826 85.1721 241.385 13.4635 216.436C9.55137 215.074 7.48337 210.8 8.84447 206.888C10.2056 202.975 14.4804 200.907 18.3925 202.269C89.0446 226.85 142.069 235.445 192.752 227.172Z" fill="white"/>
<path fill-rule="evenodd" clip-rule="evenodd" d="M184.152 138.615C133.442 146.883 84.0343 171.577 20.9134 215.526C17.5141 217.893 12.8397 217.056 10.4729 213.657C8.10602 210.258 8.94299 205.583 12.3423 203.216C76.1437 158.793 127.75 132.613 181.738 123.81C235.791 114.997 291.314 123.748 362.673 147.341C366.606 148.642 368.74 152.884 367.44 156.817C366.139 160.749 361.897 162.883 357.964 161.583C287.66 138.338 234.799 130.357 184.152 138.615Z" fill="white"/>
<path fill-rule="evenodd" clip-rule="evenodd" d="M189.848 226.352C212.56 226.352 231.848 207.144 231.848 182.352C231.848 157.56 212.56 138.352 189.848 138.352C167.135 138.352 147.848 157.56 147.848 182.352C147.848 207.144 167.135 226.352 189.848 226.352ZM189.848 241.352C221.328 241.352 246.848 214.937 246.848 182.352C246.848 149.767 221.328 123.352 189.848 123.352C158.368 123.352 132.848 149.767 132.848 182.352C132.848 214.937 158.368 241.352 189.848 241.352Z" fill="white"/>
</svg>
