<svg width="150" height="86" viewBox="0 0 150 86" fill="none" xmlns="http://www.w3.org/2000/svg">
<g clip-path="url(#clip0)">
<path d="M113.895 0.0468981C113.871 0.0703356 113.086 0.175804 112.148 0.292992C100.793 1.57034 90.6094 8.30862 78.2695 22.6875C77.332 23.7774 75.7148 25.711 74.6602 26.9766C73.6172 28.2539 72.6914 29.2969 72.6211 29.2969C72.5391 29.2969 72.0352 28.8985 71.4844 28.4063C67.5117 24.8321 63.6094 21.9141 60.0586 19.8399C57.8789 18.5742 51.1523 14.9531 49.5469 14.1914C46.793 12.8789 43.7812 11.9649 40.7227 11.5196C38.625 11.2149 34.6875 11.25 32.5195 11.5781C20.6953 13.4063 10.1719 21.4688 4.35936 33.1641C1.74608 38.4024 0.374987 43.7696 0.0351433 50.0977C-0.0703255 51.9141 0.374987 56.2852 0.937487 59.0625C2.41405 66.3867 5.8828 72.3047 11.0508 76.3008C12.3633 77.3203 13.1367 77.7774 17.9297 80.4024C23.3437 83.3555 24.4805 83.8594 27.3633 84.6094C28.5117 84.9024 29.1914 85.0195 32.3203 85.4297C33.9375 85.6524 34.7344 85.6055 38.6133 85.0664C44.2734 84.293 50.6133 81.7031 55.8984 77.9883C61.5938 73.9805 67.2656 68.3086 75.1172 58.7695C76.2305 57.4102 77.2149 56.2969 77.2969 56.2735C77.3906 56.25 78.082 56.7774 78.8438 57.4453C82.3125 60.5039 85.3711 62.8711 88.0195 64.5586C90.2461 65.9766 98.8477 70.6758 100.863 71.5781C109.313 75.375 118.922 75.0703 127.617 70.7227C131.473 68.8008 134.496 66.6094 137.707 63.3985C143.098 58.0196 146.859 51.4219 148.688 44.1094C149.824 39.586 150.188 35.0625 149.73 30.9375C148.535 20.1797 144.258 12.2344 137.379 7.99221C136.371 7.3594 129.68 3.72659 127.969 2.87112C125.473 1.61721 122.379 0.726586 119.18 0.351586C118.57 0.281273 117.715 0.175804 117.281 0.117211C116.52 2.31392e-05 113.988 -0.0468519 113.895 0.0468981ZM122.93 18.7617C123.82 18.9024 124.172 19.1836 125.203 20.6133C128.367 25.0078 129.504 31.8281 128.098 37.8633C126.914 42.9141 123.902 47.8711 120.082 51.0586C115.77 54.6563 110.613 56.4375 105.691 56.0156C103.254 55.8164 101.086 55.2656 100.102 54.5977C98.5781 53.5899 95.7422 51.1875 92.4024 48.1055C91.5 47.2617 90.0352 45.9258 89.1445 45.1289C88.2656 44.3321 87.5391 43.6055 87.5391 43.5235C87.5391 43.2656 92.9414 36.6446 95.5664 33.6914C101.133 27.4453 105.832 23.4961 110.555 21.1289C112.734 20.0274 115.395 19.1602 117.621 18.8203C118.875 18.6211 121.887 18.586 122.93 18.7617ZM46.7227 29.8711C48.9961 30.375 49.3828 30.5391 50.8477 31.6524C52.6406 33.0117 53.7305 33.961 58.0664 37.8985C60.0703 39.7266 61.8867 41.3789 62.1094 41.5781C62.4727 41.8946 62.5078 41.9649 62.3789 42.1758C62.1563 42.5391 58.3828 47.1914 56.6719 49.2071C48.5156 58.8516 42.2344 63.8321 35.6133 65.9531C33.3633 66.6797 32.2851 66.8438 29.707 66.8438C26.7422 66.8555 26.3437 66.7969 25.8164 66.2344C25.207 65.5899 24.3047 64.2774 23.7305 63.2227C21.9375 59.8946 20.9531 54.9961 21.3164 51.1524C22.0312 43.6172 26.0508 36.8203 32.168 32.7774C34.3242 31.3594 37.1484 30.2344 39.7148 29.7656C41.4141 29.4492 45.1055 29.5078 46.7227 29.8711Z" fill="#9DC4FF"/>
</g>
<defs>
<clipPath id="clip0">
<rect width="150" height="85.5469" fill="white"/>
</clipPath>
</defs>
</svg>
