<svg width="241" height="240" viewBox="0 0 241 240" fill="none" xmlns="http://www.w3.org/2000/svg">
<path fill-rule="evenodd" clip-rule="evenodd" d="M4.80211 136.395C6.41088 134.186 9.50534 133.7 11.7138 135.309L139.812 228.625C142.021 230.234 142.507 233.328 140.898 235.536C139.289 237.745 136.195 238.231 133.987 236.622L5.88792 143.306C3.67948 141.697 3.19333 138.603 4.80211 136.395Z" fill="#9DC4FF"/>
<path fill-rule="evenodd" clip-rule="evenodd" d="M98.418 2.99684C100.011 0.776939 103.102 0.268673 105.322 1.86159L237.623 96.7965C239.843 98.3888 240.351 101.48 238.758 103.7C237.165 105.92 234.074 106.428 231.855 104.835L99.5532 9.90055C97.3335 8.30761 96.825 5.21674 98.418 2.99684Z" fill="#9DC4FF"/>
<path fill-rule="evenodd" clip-rule="evenodd" d="M136.535 238.408C134.317 236.814 133.811 233.723 135.405 231.504L231.137 98.3043C232.731 96.086 235.823 95.58 238.041 97.1744C240.26 98.7687 240.766 101.86 239.171 104.079L143.44 237.278C141.845 239.497 138.754 240.003 136.535 238.408Z" fill="#9DC4FF"/>
<path fill-rule="evenodd" clip-rule="evenodd" d="M104.809 2.17694C107.005 3.80341 107.466 6.9017 105.839 9.09708L9.43361 139.227C7.80716 141.423 4.70887 141.884 2.51343 140.258C0.317994 138.632 -0.143259 135.533 1.48321 133.337L97.8892 3.20715C99.5152 1.01171 102.613 0.550472 104.809 2.17694Z" fill="#9DC4FF"/>
<path fill-rule="evenodd" clip-rule="evenodd" d="M123.145 148.85C156.621 143.386 189.188 126.664 230.772 96.7754C232.99 95.1811 236.082 95.6871 237.676 97.9054C239.271 100.124 238.765 103.215 236.546 104.81C194.516 135.019 160.459 152.785 124.739 158.615C88.9748 164.453 52.182 158.225 4.88078 141.768C2.30022 140.87 0.936108 138.05 1.83393 135.47C2.73177 132.889 5.55156 131.525 8.1321 132.423C54.7364 148.638 89.7129 154.307 123.145 148.85Z" fill="#9DC4FF"/>
<path fill-rule="evenodd" clip-rule="evenodd" d="M117.472 90.4345C84.0225 95.8883 51.4316 112.177 9.79516 141.167C7.55288 142.729 4.4695 142.177 2.90829 139.935C1.34702 137.692 1.89911 134.609 4.1414 133.047C46.2268 103.745 80.2679 86.4754 115.88 80.6687C151.535 74.8554 188.16 80.6278 235.23 96.1905C237.825 97.0486 239.232 99.8468 238.375 102.441C237.517 105.035 234.718 106.442 232.124 105.585C185.749 90.2518 150.881 84.9873 117.472 90.4345Z" fill="#9DC4FF"/>
<path fill-rule="evenodd" clip-rule="evenodd" d="M121.229 148.308C136.211 148.308 148.934 135.638 148.934 119.285C148.934 102.931 136.211 90.2609 121.229 90.2609C106.247 90.2609 93.525 102.931 93.525 119.285C93.525 135.638 106.247 148.308 121.229 148.308ZM121.229 158.203C141.995 158.203 158.828 140.779 158.828 119.285C158.828 97.7906 141.995 80.3665 121.229 80.3665C100.464 80.3665 83.6305 97.7906 83.6305 119.285C83.6305 140.779 100.464 158.203 121.229 158.203Z" fill="#9DC4FF"/>
</svg>
