<svg width="100" height="85" viewBox="0 0 100 85" fill="none" xmlns="http://www.w3.org/2000/svg">
<g clip-path="url(#clip0)">
<path d="M49.9922 0.0390624C49.9687 0.0546874 49.6172 0.109375 49.2109 0.15625C48.3047 0.257812 47.5781 0.390625 47.5781 0.460937C47.5781 0.492187 47.7969 0.625 48.0625 0.75C49.0781 1.22656 50.2422 2.28125 50.7891 3.21875C50.9609 3.51562 51.125 3.75 51.1562 3.75C51.3672 3.75 52.1875 3.14062 52.8125 2.51562C53.6406 1.69531 54.2031 1.36719 55.2265 1.10937C55.5625 1.02344 55.7656 0.9375 55.7109 0.898437C55.4922 0.765625 54.039 0.398437 53.2812 0.28125C52.8281 0.210937 52.2422 0.117187 51.9844 0.0781249C51.5 -5.58794e-08 50.0547 -0.0312501 49.9922 0.0390624Z" fill="#9DC4FF"/>
<path d="M40.625 0.476562C39.8907 0.5625 38.3594 0.851562 38.2188 0.929687C38.1485 0.96875 38.2422 1.00781 38.4844 1.04687C39.0079 1.11719 39.5547 1.45312 40.1407 2.0625C40.4141 2.34375 40.6641 2.57812 40.7032 2.57812C40.7344 2.57812 41 2.29687 41.2813 1.96094C41.836 1.28906 42.2266 0.984375 42.9844 0.625L43.4766 0.390625L42.3438 0.398437C41.7188 0.40625 40.9454 0.4375 40.625 0.476562Z" fill="#9DC4FF"/>
<path d="M44.2032 1.13282C43.5235 1.3047 42.7422 1.71876 42.336 2.12501C41.875 2.58595 41.2188 3.4297 41.2735 3.4922C41.3047 3.51564 41.5625 3.35157 41.8516 3.13282C42.5 2.64845 43.1563 2.29689 44.2032 1.88282C45.1563 1.50001 45.3672 1.48439 45.4688 1.76564C45.5782 2.0547 45.5078 2.1172 44.6641 2.46095C44.2735 2.62501 43.6016 2.9297 43.1875 3.14064C42.5469 3.46876 42.3282 3.62501 41.836 4.15626C41.5078 4.50001 41.1875 4.89064 41.125 5.01564C40.961 5.32814 40.5469 6.69532 40.5469 6.92189C40.5469 7.10157 40.8047 7.34376 40.9922 7.34376C41.0469 7.34376 41.4844 7.07814 41.961 6.75782C42.4375 6.43751 42.8907 6.17189 42.9688 6.17189C43.1407 6.17189 43.4375 6.46095 43.4375 6.6172C43.4375 6.8672 42.5391 7.51564 41.1328 8.28126L40.1953 8.79689L39.5547 9.71876C38.5547 11.1719 38.0391 11.7891 37.1953 12.5313C36.4141 13.2188 36.4141 13.2266 36.1563 13.9375L35.8985 14.6485L35.8828 17.6172C35.8672 19.5547 35.8907 20.8125 35.9532 21.2266C36.0235 21.7344 36.0157 22.0313 35.9375 22.5938C35.8828 22.9922 35.8203 23.7266 35.8047 24.2188C35.7657 25.1953 35.7735 25.25 36.3438 26.586L36.6016 27.2031L36.3047 28.6563C36.1407 29.4531 35.9688 30.1719 35.9297 30.25C35.8516 30.3906 35.6485 30.4219 35.336 30.3438C35.0938 30.2813 35.1016 30.0469 35.3907 28.6875C35.5157 28.0781 35.625 27.4922 35.625 27.3828C35.625 27.2735 35.4766 26.8438 35.2969 26.4219C34.9844 25.6875 34.9688 25.6328 34.9375 24.6641C34.9219 24.1094 34.9453 23.3828 34.9922 23.0469C35.1328 22.0781 35.1172 21.3906 34.9297 21.0391C34.6016 20.3906 33.836 19.6328 32.7735 18.9063C31.4219 17.9922 30.75 17.7969 28.8282 17.7891C27.7032 17.7813 27.461 17.8047 26.9141 17.9531C26.0157 18.211 25.4297 18.5547 24.7969 19.1797C24.1407 19.8281 23.8438 20.2656 22.9297 21.875C22.0625 23.4141 21.2657 24.5391 20.7969 24.8906C20.25 25.2969 19.4063 25.6797 18.75 25.8125C17.8047 26.0156 15.8203 26.1172 14.5469 26.0313C13.2422 25.9453 13.125 25.8906 13.25 25.4219L13.3203 25.1328L15.586 25.125C18.086 25.1094 18.5782 25.0469 19.5078 24.6094C20.2188 24.2813 20.6328 23.8281 20.9375 23.0391C21.2578 22.211 21.3203 21.5 21.1407 20.6953C20.9375 19.7813 20.6641 19.3906 19.2578 18.0078C17.8985 16.6719 17.6563 16.3281 17.3125 15.3125C17.0703 14.5781 16.9453 13.711 17.0625 13.5547C17.1797 13.4063 17.7032 13.3203 17.7735 13.4375C17.8047 13.4922 17.8985 13.8672 17.9766 14.2813C18.0625 14.7188 18.2344 15.2735 18.3985 15.6094C18.6407 16.1172 18.8203 16.336 19.9844 17.4844C21.1953 18.6797 21.336 18.8438 21.6407 19.461C21.8516 19.8985 22 20.3281 22.0547 20.6953C22.1016 21 22.1719 21.25 22.2032 21.25C22.2344 21.25 22.461 20.9063 22.7032 20.4844C23.7813 18.6563 24.7813 17.7422 26.3125 17.2188C26.7188 17.0781 27.0625 16.9453 27.086 16.9297C27.1016 16.9063 27.0313 16.711 26.9219 16.4922C26.7344 16.125 26.7188 16.0313 26.7188 14.9453C26.7188 13.5391 26.8672 11.4063 26.9766 11.2656C27.0235 11.2109 27.1641 11.1719 27.2969 11.1875L27.5391 11.2109L27.5 12.3438C27.4766 12.9688 27.461 14.0547 27.461 14.7656V16.0547L27.7032 16.4453L27.9453 16.836L29.1485 16.8828C29.8125 16.9141 30.6172 16.9922 30.9375 17.0625C31.9453 17.2735 33.0547 17.9219 34.6094 19.2031L34.9219 19.4688V17.5156C34.9219 15.2969 34.9844 14.6719 35.3203 13.6953L35.5547 13.0078L35.3516 12.8438C35.2344 12.7578 34.4766 12.3359 33.6563 11.9063C31.961 11.0234 31.0625 10.4609 29.4688 9.27345C28.3203 8.40626 28.2188 8.27345 28.5078 8.01564C28.7032 7.84376 28.7422 7.85939 30 8.78126C31.5625 9.9297 32.1172 10.2813 33.586 11.0547C34.3438 11.4453 35.1953 11.9063 35.4844 12.0625L36.0157 12.3594L36.3047 12.125C36.9453 11.6172 37.9688 10.4531 38.7266 9.37501C39.1563 8.75001 39.6094 8.15626 39.7188 8.0547C39.8282 7.94532 39.9219 7.83595 39.9219 7.8047C39.9219 7.6797 38.3047 6.94532 37.7735 6.82814C37.336 6.73439 36.336 6.69532 32.8907 6.64064C29.9922 6.59376 28.2657 6.53126 27.6719 6.46095C26.9141 6.35939 26.711 6.35939 26.1485 6.45314C24.8985 6.67189 23.4844 7.21095 22.6172 7.81251C22.2032 8.10157 20.836 9.58595 20.8985 9.68751C20.9219 9.72657 21.1328 9.82814 21.375 9.91407C21.7735 10.0703 21.8203 10.0703 22.0391 9.95314C22.1719 9.89064 22.3516 9.71095 22.4375 9.56251C22.5547 9.35939 22.6485 9.29689 22.8125 9.29689C23.5078 9.29689 23.0938 10.3047 22.25 10.6563C21.8047 10.8438 21.6172 10.8125 20.711 10.4063L19.8828 10.0391H18.711C17.5391 10.0391 17.5391 10.0391 17.0078 10.2969C15.5313 11.0234 13.1172 13.4063 12.0391 15.1953C11.086 16.7656 10.375 18.4219 9.95316 20.0469C9.64847 21.2031 9.2891 22.0547 8.92191 22.4922C8.73441 22.7188 8.6641 22.75 8.48441 22.7031C8.20316 22.6328 8.14847 22.4453 8.32035 22.1563C8.79691 21.3594 9.00003 20.8828 9.21097 20.0235C9.34378 19.5 9.45316 19.0156 9.45316 18.9453C9.45316 18.7969 9.19535 18.8203 7.61722 19.1094C5.71097 19.4531 5.1641 19.711 4.40628 20.6094C3.40628 21.8125 2.28128 23.7266 1.99222 24.7266C1.79691 25.3906 1.85941 26.3047 2.14066 26.9141C2.48441 27.6719 3.43753 28.5469 4.50785 29.0938C4.73441 29.2031 4.96878 29.2969 5.02347 29.2969C5.14066 29.2969 5.74222 28.6875 5.9766 28.336C6.09378 28.1485 6.10941 28.0391 6.05472 27.5938C6.02347 27.3047 5.98441 26.8985 5.98441 26.6797C5.9766 26.3047 5.98441 26.2969 6.24222 26.2422C6.39066 26.211 6.55472 26.2031 6.60941 26.2266C6.7266 26.2656 6.94535 27.1641 7.00785 27.8281C7.04691 28.211 7.02347 28.3203 6.83597 28.6485C6.71878 28.8516 6.08597 29.5469 5.42972 30.1953C4.01566 31.6016 3.98441 31.6563 3.92972 33.2422C3.88285 34.5078 4.02347 35.3516 4.4141 36.1406C5.1016 37.5391 6.85941 39.5235 7.81253 39.9844C8.25785 40.2031 9.89066 40.6094 9.96878 40.5235C9.99222 40.5078 9.9141 40.2969 9.80472 40.0547C9.36722 39.0938 9.40628 38.4922 10.0391 36.6953C10.5391 35.2578 10.6485 34.5703 10.5391 33.4688C10.4297 32.25 10.1485 31.211 9.59378 29.9766C9.42191 29.6016 9.29691 29.2344 9.31253 29.1563C9.32816 29.086 9.46097 28.961 9.6016 28.8906C9.95316 28.7188 10.0313 28.7813 10.3594 29.5078C11.2344 31.4219 11.6328 33.5078 11.4141 35.0391C11.3672 35.375 11.1172 36.2734 10.8594 37.0391C10.5391 37.9766 10.3907 38.5391 10.3907 38.7969C10.3907 39.711 11.2735 40.8438 12.461 41.461C13.6016 42.0469 16.75 43.1016 18.25 43.3985C18.5157 43.4531 18.4063 43.5235 20.4844 41.9844C21.1875 41.4688 22.336 40.6485 23.0469 40.1641C23.7578 39.6797 24.3828 39.2344 24.4453 39.1797C24.5391 39.0938 24.4375 39.0156 23.8203 38.7266C23.2578 38.4609 22.8594 38.1875 22.1016 37.5547C21.5625 37.1016 20.8907 36.4766 20.6172 36.1641C18.875 34.2031 18.4063 33.8047 16.2422 32.4609C14.5938 31.4375 14.1797 31.1406 13.461 30.4375C12.8594 29.8672 12.7735 29.6641 13.0313 29.4297C13.2578 29.2188 13.461 29.2735 13.7891 29.6172C14.3203 30.1641 15.2969 30.8828 16.7422 31.7813C19.0625 33.2266 19.7032 33.75 20.75 35.0547C21.3125 35.75 22.836 37.1484 23.6016 37.6641C23.961 37.9141 25.2422 38.4375 25.4766 38.4375C25.5703 38.4375 26 38.2188 26.4375 37.9453C28.0235 36.9531 28.5782 36.6875 29.7969 36.3672C30.1797 36.2578 30.5 36.1641 30.5157 36.1484C30.5391 36.1328 30.4297 35.6953 30.2813 35.1875C29.836 33.6328 29.3203 30.336 29.1797 28.1172C29.0391 25.9453 28.9063 24.9063 28.6719 24.2266C28.586 23.961 28.211 23.1016 27.8516 22.3203C27.4844 21.5313 27.1875 20.8125 27.1875 20.7188C27.1875 20.5313 27.3985 20.3906 27.6875 20.3906C27.8985 20.3906 27.8672 20.3281 28.8672 22.5C29.75 24.4219 29.7891 24.625 30.0782 28.8281C30.1875 30.4141 30.6953 33.4922 31.1094 35.0156C31.2032 35.375 31.2422 35.7109 31.2188 35.8281C31.1641 36.0391 31.1641 36.0391 31.5 35.9844C32.8985 35.7578 34.4766 35.7813 36.0157 36.0547C37.0782 36.2422 37.8516 36.2734 39.0235 36.1797C41.0703 36.0156 41.9297 35.7422 42.7657 35.0078C43.0157 34.7813 43.4141 34.4609 43.6407 34.2891C43.9219 34.0859 44.0625 33.9219 44.0625 33.8125C44.0625 33.7266 44.1328 33.4141 44.2188 33.125C44.4297 32.4219 44.5157 31.7422 44.4375 31.3828C44.3438 30.9453 44 30.4922 42.7578 29.1641C42.1407 28.5078 41.6407 27.9375 41.6407 27.9063C41.6407 27.8047 41.9141 27.5781 42.0313 27.5781C42.086 27.5781 42.2891 27.7188 42.4766 27.8985C42.6719 28.0703 42.8438 28.2031 42.8594 28.1797C42.8828 28.1641 42.7578 27.8203 42.5782 27.4297C42.4063 27.0313 42.2657 26.6641 42.2657 26.6016C42.2657 26.4766 42.5391 26.375 42.6641 26.4531C42.7891 26.5313 43.2969 27.6563 43.5469 28.4219C43.6953 28.8516 43.8828 29.2188 44.1094 29.5156C45.2891 31.0235 45.3985 31.5 44.961 33.125C44.7891 33.7656 44.7891 33.7734 45.1797 33.7031C45.3594 33.6641 46.2813 33.6406 47.2344 33.6328H48.961L49.7032 33.2578C51.0157 32.6172 52.3438 31.5 53.0078 30.5C53.4297 29.8672 53.6407 29.1719 53.7813 27.9922C53.961 26.4297 54.2813 25.9141 54.836 26.2969C55.0313 26.4375 55.0313 26.5469 54.8203 27.1875C54.7578 27.3828 54.6641 27.9141 54.6172 28.3828C54.4375 30.1719 53.6641 31.5156 52.0938 32.7578C51.7032 33.0625 51.4219 33.3281 51.4688 33.3438C51.5157 33.3594 52.4453 33.1719 53.5313 32.9297C54.6172 32.6875 55.875 32.4375 56.3282 32.375C57.8594 32.1719 59.3985 32.2578 60.8203 32.6328C62.0313 32.9453 61.9766 32.9453 62.3985 32.6094C64.211 31.1563 65.6719 29.6719 67.3594 27.5625C68.4453 26.2188 69.8282 24.75 70.2188 24.5391C70.3985 24.4453 70.7032 24.625 70.7032 24.8281C70.7032 24.9063 70.3516 25.3125 69.9141 25.7422C69.4844 26.1719 68.5625 27.2266 67.8672 28.086C66.5313 29.75 64.4219 31.9297 63.3438 32.7734C63.0157 33.0313 62.7422 33.2813 62.7422 33.3281C62.7344 33.4219 64.9688 34.7813 65.3829 34.9453C65.6563 35.0469 65.6328 35.0625 66.4219 34.1406C66.6563 33.8672 66.8594 33.8672 67.1407 34.1406C67.2735 34.2734 67.2735 34.2891 67.1407 34.5781C66.9532 34.9609 66.1563 35.8125 65.8594 35.9375C65.5313 36.0703 65.2422 35.9531 63.6329 34.9922C61.2735 33.5859 60.7188 33.3828 58.8672 33.2031C57.4453 33.0781 56.5547 33.1797 53.4375 33.8672C52.3828 34.0938 51.2422 34.3281 50.8985 34.375C50.5547 34.4219 50.0625 34.4922 49.7969 34.5391C49.5391 34.5781 49.1485 34.6094 48.9375 34.6094C48.5 34.6094 47 34.9844 46.25 35.2813C45.1719 35.7031 44.0547 36.4766 42.7735 37.6719L42.1485 38.2578L42.2969 38.6406C42.7188 39.75 42.75 40.2891 42.461 41.4688C42.211 42.4844 42.1641 42.5781 41.8672 42.5781C41.5625 42.5781 41.5157 42.4297 41.6328 41.8828C41.9688 40.3516 41.9766 40.2891 41.8907 39.8047C41.836 39.5156 41.6328 39 41.3516 38.4531L40.8985 37.5625L41.086 37.4141C41.3125 37.2266 41.3672 37.2266 41.5625 37.4219C41.6485 37.5078 41.7422 37.5781 41.7657 37.5781C41.7891 37.5781 42.1328 37.2813 42.5313 36.9297C43.5703 35.9844 44.3672 35.4141 45.2657 34.9453C46.1094 34.5078 46.086 34.4453 45.1407 34.6406C44.461 34.7891 44.2813 34.8906 43.461 35.5859C43.086 35.9141 42.5547 36.2813 42.2969 36.4063C40.9532 37.0625 38 37.3047 35.8828 36.9375C34.4532 36.6953 32.5 36.6953 31.2735 36.9375C30.0391 37.1875 29.1485 37.4531 28.5078 37.7813C26.461 38.8125 20.5078 42.8828 18.8907 44.3672C18.3047 44.8985 18.1953 45.25 17.9297 47.3985C17.8203 48.2891 17.6953 49.1485 17.6563 49.2969C17.461 50.0078 17.7032 50.5625 18.6094 51.5235L19.2266 52.1797L19.3282 52.8672C19.3907 53.2422 19.4922 53.7031 19.5625 53.8828C19.6485 54.1406 19.6641 54.3125 19.6094 54.6328C19.4844 55.4141 19.7578 56.0781 20.5391 56.9063C20.7813 57.1563 21.1797 57.5156 21.4297 57.6953C22.1407 58.2344 23.7188 59.1406 23.9453 59.1406C24.0547 59.1406 24.5625 59.3281 25.0625 59.5625C26.875 60.3906 27.7188 60.5235 29.4141 60.2188C29.6719 60.1719 29.9141 60.1094 29.9532 60.0781C29.9844 60.0391 29.8672 59.9141 29.6797 59.7969C28.6797 59.1485 28 58.3203 27.7188 57.3985C27.5782 56.9297 27.5625 56.7266 27.5938 55.7969C27.6407 54.5781 27.7969 53.9766 28.5547 52.1953C28.8282 51.5703 28.9453 51.2031 28.8907 51.1797C28.836 51.1641 28.586 51.375 28.3282 51.6485C27.9297 52.0703 27.7266 52.4063 27.0938 53.6719C26.2735 55.3125 26.0157 55.7031 25.5391 55.9375C25.1485 56.1406 25.0469 56.1328 24.9375 55.8906C24.8438 55.6875 24.9219 55.3906 25.0782 55.3906C25.336 55.3906 25.6875 54.8672 26.461 53.336C27.2266 51.8203 27.3438 51.6328 27.8438 51.125C28.25 50.7188 28.5547 50.5 28.9766 50.2969L29.5547 50.0235L29.0157 49.7344C28.7188 49.5781 28.2344 49.2578 27.9375 49.0235C27.6407 48.7891 27.3672 48.5938 27.3203 48.5938C27.2813 48.5938 26.6641 48.2735 25.9453 47.875C25.2344 47.4844 24.3047 46.9688 23.8907 46.7422C23.4688 46.5078 23.1094 46.2891 23.086 46.25C23 46.1094 23.1953 45.7813 23.3672 45.7813C23.461 45.7813 24.1875 46.1172 24.9688 46.5235C25.7578 46.9297 26.4219 47.2656 26.4453 47.2656C26.461 47.2656 26.3907 47.0625 26.2813 46.8125C26.1641 46.5703 26 46.1797 25.9141 45.9453C25.7578 45.5391 25.7578 45.5235 25.8985 45.4219C26.1641 45.2266 26.4063 45.2813 26.5 45.5625C26.7032 46.1406 27.3594 47.336 27.7266 47.7813C28.5469 48.7891 29.6797 49.4141 31.1094 49.6485C32.4375 49.8594 32.8907 49.8203 34.961 49.2969C35.9766 49.0391 36.9063 48.7735 37.0157 48.7188C37.1328 48.6563 37.4141 48.3985 37.6407 48.1406C37.9141 47.8281 38.1407 47.6406 38.3438 47.5703C38.5 47.5235 38.6563 47.4688 38.6797 47.4531C38.711 47.4375 38.4375 46.7813 38.0782 46C37.7188 45.211 37.4219 44.4922 37.4219 44.3906C37.4219 44.1797 37.7578 43.9922 37.9375 44.1094C38 44.1485 38.2735 44.6719 38.5469 45.2735C39.3594 47.0938 39.586 47.4531 39.9844 47.5313C40.4063 47.625 43.1797 47.9688 43.8672 48.0156C44.9297 48.0938 45.2657 47.9766 47.7735 46.711C48.9766 46.1016 49.9766 45.5938 49.9922 45.5781C50.0157 45.5547 50.0547 45.3281 50.086 45.0703C50.1797 44.25 50.9375 42.8985 52.6094 40.5469C53.1172 39.836 53.6953 38.9844 53.8907 38.6484C54.0938 38.3203 54.3203 38.0234 54.3985 38C54.5703 37.9453 54.8438 38.1719 54.8438 38.3594C54.8438 38.5391 54.2032 39.5469 53.0703 41.1328C51.9688 42.6875 51.586 43.2969 51.125 44.25C50.7266 45.0547 50.6875 45.2813 50.961 45.2031C51.4844 45.0547 51.8672 45.0703 52.7735 45.2735C53.9688 45.5469 55.3438 45.6016 57.8828 45.4688C59.8516 45.3672 60.0391 45.336 61.0079 44.8594C61.7813 44.4844 62.3594 43.8985 62.7969 43.0625C63.1407 42.4219 63.2266 42.3438 63.5235 42.5C63.7344 42.6172 63.711 42.8203 63.4297 43.3828C63.0938 44.0469 62.6485 44.6172 62.1407 45C61.9141 45.1797 61.7344 45.3594 61.7579 45.3906C61.7813 45.4297 61.9297 45.5 62.0938 45.5469C62.25 45.6016 62.8047 45.8828 63.3204 46.1797C64.7969 47.0235 64.9375 47.0625 66.6016 47.0625C67.375 47.0703 68.1328 47.0469 68.2891 47.0078C68.6094 46.9453 69.1407 46.4531 70.3438 45.1172C71.336 44.0156 71.75 43.6875 73.211 42.8516C73.875 42.4766 74.9219 41.836 75.5469 41.4219C76.5469 40.7656 76.8438 40.5156 78.0938 39.2656C78.8672 38.4844 79.6328 37.6484 79.7969 37.3906C79.961 37.1406 80.3516 36.2969 80.6641 35.5156C81.3438 33.8047 81.6094 33.2735 82.5235 31.7578C83.6641 29.875 83.9141 29.1797 83.7188 28.4375C83.6641 28.2422 83.125 27.2578 82.5235 26.2422C81.4532 24.461 80.8594 23.3672 80.8594 23.211C80.8594 23.1016 81.2735 22.8906 81.4766 22.8906C81.5938 22.8906 81.7266 23.0703 82 23.5703C82.2032 23.9531 82.8047 24.9766 83.3282 25.8594C83.8516 26.7422 84.3516 27.6172 84.4453 27.8047C84.961 28.8047 84.6485 29.9844 83.3125 32.1641C82.9844 32.6953 82.7422 33.1797 82.7657 33.2422C82.8047 33.3516 83.4063 33.7188 84.7657 34.4453C85.5078 34.8438 86.9922 35.9844 87.086 36.2266C87.1563 36.3984 86.9766 36.7188 86.8047 36.7188C86.7266 36.7188 86.3203 36.4375 85.9063 36.0938C85.4922 35.7578 84.9219 35.3438 84.625 35.1875C84.336 35.0313 83.7188 34.6953 83.2578 34.4375C82.7891 34.1797 82.3672 33.9922 82.3125 34.0078C82.2578 34.0313 81.9219 34.7813 81.5625 35.6719C81.125 36.75 80.7735 37.5078 80.5157 37.8906C80.2891 38.2188 79.5391 39.0703 78.7891 39.836C77.5313 41.125 77.3828 41.2422 75.9766 42.1875C75.1641 42.7266 74.0782 43.3985 73.5703 43.6797C73.0625 43.9531 72.4453 44.336 72.2032 44.5313C71.6875 44.9453 69.7657 47.0235 69.7657 47.1719C69.7657 47.2266 69.9766 47.5938 70.2422 47.9766C70.7969 48.7969 70.9375 49.1094 70.9375 49.4766C70.9375 49.7031 70.8985 49.7656 70.711 49.8438C70.3516 49.9922 70.2344 49.9219 70.0391 49.4453C69.8907 49.0781 69.6953 48.7578 69.1328 47.9453C69.1016 47.8985 68.5235 47.9141 67.7188 47.9688C65.5235 48.1328 64.6016 47.9531 63.1407 47.0938C62.1016 46.4844 61.5391 46.2578 61.0625 46.25H60.6797L60.7344 46.6172C60.8047 47.1406 61.2188 47.9844 61.5704 48.3281C61.9063 48.6563 61.9454 48.8203 61.7344 49.0078C61.5235 49.1953 61.4375 49.1797 61.0625 48.8281C60.6563 48.4531 60.2266 47.6172 60.0313 46.8516L59.9063 46.3281H59.3047C58.9766 46.3281 57.8985 46.3672 56.8985 46.4063C54.8047 46.5078 53.7032 46.4375 52.5235 46.1406C51.7735 45.9531 51.7188 45.9453 51.2813 46.0547C51.0235 46.1172 49.75 46.711 48.4375 47.375C45.4688 48.875 45.2578 48.9453 43.836 48.8828C43.25 48.8594 42.1407 48.75 41.3594 48.6406C40.586 48.5313 39.6641 48.4219 39.3125 48.3906L38.6797 48.336L38.0469 48.9922C37.7032 49.3516 37.3985 49.7266 37.375 49.8203C37.3203 50.0313 37.5938 50.6406 38.2344 51.75C38.7344 52.625 38.8203 52.9219 38.8282 53.7656V54.3594L39.2032 54.4844C39.4063 54.5469 39.8282 54.6719 40.1407 54.7656C40.6797 54.9219 40.7032 54.9375 40.7032 55.1641C40.7032 55.5 40.5703 55.7031 40.3594 55.7031C40.0782 55.7031 38.8672 55.336 38.4453 55.1172C37.9688 54.8828 37.8907 54.6797 37.8907 53.6875V52.9375L37.3438 51.9844C36.7657 50.9688 36.4844 50.3438 36.4844 50.0547C36.4844 49.6641 36.4375 49.6719 34.7657 50.086C33.1797 50.4766 33.1719 50.4766 32 50.461C31.0235 50.4531 30.75 50.4766 30.3985 50.5938L29.9688 50.7422L29.6016 51.5781C28.5391 53.9766 28.2578 54.9531 28.2969 56.211C28.3203 56.9531 28.3516 57.1328 28.5313 57.5156C29.125 58.7891 30.0547 59.3985 32.7344 60.2656C33.5938 60.5469 34.3047 60.836 34.6485 61.0313C35.2032 61.3594 36.25 62.3125 36.25 62.4844C36.25 62.6016 35.9688 62.8906 35.8516 62.8906C35.8047 62.8906 35.5703 62.7031 35.3282 62.4688C34.5703 61.75 34.0157 61.4531 32.5547 60.9688L31.2188 60.5313L30.3907 60.7344C28.6875 61.1485 27.6016 61.1875 26.4297 60.875C26.1172 60.7891 25.8594 60.7344 25.8594 60.7422C25.8594 60.8047 26.9766 61.461 27.7735 61.8672C29.3516 62.6797 31.0625 63.2656 32.8516 63.6016C33.5625 63.7422 34.1953 63.7735 36.5625 63.8281C39.6485 63.8985 40.3047 63.8672 42.3047 63.5469C44.2344 63.2344 45.336 62.9922 46.375 62.6563C48.2344 62.0547 49.8125 61.9063 52.9297 62.0391C54.3672 62.1016 55.7344 62.1094 57.2266 62.0625C58.4297 62.0235 60.3282 62 61.4454 62L63.4766 62.0078L65.1954 62.375C68.4844 63.0781 68.3438 63.0625 70.8985 63.0078C72.2891 62.9844 73.3907 62.9922 73.75 63.0391C75.625 63.2969 76.1797 63.3594 77.3438 63.4688C78.0547 63.5391 79.211 63.625 79.9219 63.6719C80.6328 63.7188 81.4922 63.8047 81.836 63.8672C83.3672 64.1406 84.8203 64.1875 86.2813 64.0156C87.0313 63.9219 87.2344 63.3672 86.836 62.5156C86.5313 61.8516 86.3907 61.7031 85.3594 60.8985C84.2813 60.0625 83.2266 59.0078 82.3438 57.875C82.0235 57.461 81.7188 57.1016 81.6797 57.086C81.6328 57.0625 81.336 57.1328 81.0157 57.2344C79.5938 57.6875 78.711 57.836 77.1719 57.875C76.3594 57.8906 75.7032 57.9219 75.7032 57.9375C75.7032 57.9531 75.8282 58.1328 75.9844 58.336C76.4922 59 76.5625 59.2188 76.5625 60.3125C76.5625 60.8516 76.5313 61.336 76.4922 61.3906C76.4532 61.4531 76.3203 61.4844 76.1641 61.4688L75.8985 61.4453L75.8594 60.4297C75.8203 59.5078 75.8047 59.3828 75.6094 59.0547C75.1953 58.3594 74.375 57.75 73.5547 57.5469C72.625 57.3203 64.9375 56.4844 63.7579 56.4844C63.3438 56.4844 62.375 56.5391 61.6016 56.6016C59.9766 56.7344 58.1719 56.75 57.586 56.6406C57.3594 56.6016 56.961 56.4766 56.6953 56.3594C56.4297 56.25 56.0157 56.0703 55.7735 55.9688C55.3672 55.7969 55.3047 55.7891 55.0235 55.8906C54.8516 55.9531 54.1563 56.3438 53.4688 56.7656C51.2266 58.1406 50.9141 58.2344 48.6719 58.2344C47.0625 58.2344 46.4453 58.1563 44.5938 57.6875C44.1797 57.586 43.7578 57.5 43.6563 57.5C43.2813 57.5 42.8828 57.6719 42.0703 58.2031C41.0703 58.8516 40.4688 59.0625 39.4922 59.1172C38.7344 59.1641 37.2735 59.0313 37.0235 58.9063C36.8672 58.8203 36.8282 58.5547 36.9453 58.3672C37.0078 58.2735 37.1797 58.2735 38.1016 58.3594C39.8516 58.5235 40.5625 58.3594 41.8438 57.4922C42.5547 57.0156 43.086 56.8047 43.6016 56.7969C43.8047 56.7969 44.3985 56.8985 44.9297 57.0235C46.6797 57.4453 47.2969 57.5235 48.6719 57.5313C49.3828 57.5313 50.1719 57.4844 50.4297 57.4375C51.0391 57.3125 51.75 56.9688 53.0469 56.1719C54.3282 55.3828 54.9532 55.0781 55.2969 55.0781C55.4375 55.0781 55.9532 55.25 56.4297 55.461C57.7657 56.0547 58.586 56.125 61.2891 55.8985C62.0625 55.8281 63.1329 55.7735 63.6719 55.7735C64.7188 55.7656 65.0547 55.7969 68.8282 56.2188C73.2813 56.711 73.75 56.7813 74.3516 57.0469C74.6328 57.1719 74.75 57.1875 74.8516 57.1172C74.9532 57.0547 75.1641 57.0547 75.6407 57.1172C76.5313 57.2422 78.2891 57.1563 79.2422 56.9531C81.5078 56.4688 83.7188 55.4453 86.5 53.5781C86.875 53.3281 87.2344 53.125 87.2969 53.125C87.4532 53.125 87.6719 53.461 87.6172 53.6094C87.5157 53.8594 84.3516 55.8203 83.086 56.4141C82.7188 56.586 82.4219 56.7578 82.4219 56.7891C82.4219 56.9141 84.0469 58.7969 84.6172 59.336C84.9375 59.6328 85.5703 60.1719 86.0313 60.5235C86.5157 60.8985 86.9766 61.3281 87.1172 61.5391C87.7422 62.4453 87.9063 63.4063 87.5469 64.0391L87.3594 64.3672L87.6485 64.4141C88.0782 64.4844 90.1485 64.3203 90.961 64.1406C92.086 63.8985 92.8907 63.5938 92.8907 63.4219C92.8907 63.336 92.9844 62.875 93.0938 62.3985C93.2813 61.5703 93.2891 61.4531 93.2422 60.1875C93.1953 59.1953 93.211 58.7735 93.2813 58.5469C93.336 58.3828 93.6563 57.8516 93.9922 57.3672C94.336 56.8906 94.6641 56.3438 94.7344 56.1563C94.9375 55.625 94.9688 54.0156 94.8047 53.0469C94.625 51.9297 94.211 50.4922 93.8203 49.5703C93.6407 49.1406 93.4844 48.6953 93.4844 48.5703L93.4766 48.3594H92.4141C91.8282 48.3594 91.1407 48.336 90.8907 48.3125L90.4219 48.2656L90.4532 49.7891C90.4844 51.0235 90.4453 51.75 90.2813 53.5313C90.1641 54.75 90.0547 55.961 90.0313 56.2266C90 56.6172 89.961 56.7188 89.836 56.7578C89.6172 56.8281 89.3985 56.7344 89.3516 56.5547C89.2969 56.3516 89.3985 54.9141 89.6094 52.8906C89.8047 51.0391 89.7891 48.8906 89.5703 47.9297C89.2188 46.3828 88.5157 44.7891 87.6016 43.4922C87.3203 43.1016 87.0703 42.7422 87.0391 42.711C87.0078 42.6797 86.6563 42.8594 86.2657 43.1172C85.3438 43.7266 84.9532 44.2031 83.7657 46.1875C82.6328 48.0938 82.1328 48.7344 80.5938 50.2735C79.6953 51.1719 79.1875 51.6094 78.4532 52.1016C77.8985 52.4844 77.3125 52.9531 77.0703 53.2266C76.4688 53.8906 76.3672 53.9531 76.1328 53.7969C76.0235 53.7266 75.9375 53.6094 75.9375 53.5313C75.9375 53.2578 77 52.2266 77.9766 51.5625C79.0391 50.8281 80.2344 49.7266 81.2578 48.5391C82.0313 47.6406 82.4844 46.9844 83.2032 45.7422C83.8594 44.6172 84.4063 43.7969 84.7969 43.375C84.9766 43.1797 85.5782 42.7188 86.1328 42.3438C88.3828 40.836 89.625 39.6328 90.3047 38.3047C90.5391 37.8281 90.7813 36.7656 90.7813 36.1641C90.7813 35.7578 90.711 35.4609 90.461 34.7578C89.9375 33.2891 89.7735 32.6328 89.461 30.711C88.3047 23.7188 86.8594 20.8594 83.7266 19.4141C82.3672 18.7891 80.8438 18.5156 79.5391 18.6641C78.2188 18.8203 78.1563 18.8516 77.7813 19.5313C77.3907 20.2344 76.4532 21.2656 76.2266 21.2344C76.1407 21.2188 76.0235 21.1328 75.961 21.0469C75.8594 20.8906 75.8907 20.836 76.3985 20.2266C77.3203 19.125 77.7578 18.086 77.5782 17.4297C77.3594 16.6172 75.7657 15.0938 72.2266 12.3125C70.5938 11.0313 70.2344 10.7188 70.2344 10.5859C70.2344 10.4609 70.4922 10.2344 70.6328 10.2344C70.9063 10.2344 75.5782 14.0391 76.8125 15.2656C77.9766 16.4219 78.3594 17.0547 78.3594 17.7969V18.0547L78.9688 17.9922C79.8438 17.8985 81.2969 17.9297 81.836 18.0391C83.6485 18.4297 85 19.1016 86.1797 20.211C87.1953 21.1719 87.836 22.1797 88.5313 23.8906C88.7813 24.5078 89.1094 25.2266 89.2735 25.4922C89.6875 26.1797 90.711 27.5313 92.7344 30.0781C94.8203 32.6953 95.4219 33.4922 95.961 34.3203C96.211 34.7031 96.461 34.9844 96.6172 35.0625C96.9922 35.2656 98.2657 36.4609 98.4375 36.7813C98.6407 37.1797 98.6328 37.0625 98.3907 36.3906C98.0782 35.5078 97.5469 34.5469 97.0469 33.9297C96.6719 33.4766 96.5625 33.2734 96.4532 32.8516C96.2032 31.8438 95.5625 30.3828 94.9063 29.3125C94.1719 28.1094 93.4453 27.336 92.6016 26.8594C92.2422 26.6485 92.0078 26.461 91.961 26.336C91.9141 26.2266 91.8438 25.7266 91.7969 25.2344C91.5469 22.5938 90.5625 20.625 88.4688 18.5938C87.4844 17.6485 86.7188 17.0547 85.6485 16.4141L84.8828 15.961L84.7578 15.5C84.5313 14.6641 84.2188 14.1719 83.211 13.0859C82.8282 12.6719 82.2735 12 81.9766 11.5859C81.336 10.6797 80.1328 9.39845 79.2657 8.70314C76.6172 6.56251 72.9297 4.91407 68.6563 3.94532C68.2032 3.84376 67.4297 3.59376 66.9375 3.39064C65.8047 2.92189 65.1485 2.69532 64.1797 2.45314C62.5235 2.02345 61.875 1.94532 59.4532 1.87501C58.1875 1.83595 56.8828 1.78126 56.5625 1.75001C55.9063 1.69532 55.336 1.78126 54.6641 2.03126C54.2969 2.17189 54.0313 2.3672 53.3125 3.04689C52.8282 3.51564 52.2266 4.00782 51.9922 4.14064C51.75 4.28126 51.5313 4.44532 51.5078 4.50782C51.4453 4.67189 51.9453 5.6797 52.25 6.00001L52.5078 6.27345L53.2813 5.45314C54.5078 4.14845 55.0547 3.85939 57.0625 3.43751C58.375 3.17189 58.5782 3.15626 58.6485 3.32814C58.7578 3.60939 58.5547 3.70314 57.3047 3.95314C55.7969 4.26564 55.3047 4.44532 54.625 4.92189C54.0782 5.3047 53.2266 6.23439 53.336 6.32814C53.3672 6.35939 54.0157 6.43751 54.7735 6.51564C56.8516 6.71095 57.461 6.91407 58.8438 7.90626L59.6094 8.44532L60.2891 8.42189C60.9532 8.39845 60.9688 8.39064 61.1094 8.16407C61.1797 8.03126 61.3672 7.46095 61.5157 6.89064C61.9297 5.33595 62.0938 5.09376 63.1954 4.42189C64.0157 3.91407 64.875 3.57814 65.4297 3.53907C65.8829 3.50782 65.961 3.53126 67.6172 4.2422C69.7735 5.17189 70.5469 5.46095 72.0469 5.89064C73.7188 6.37501 74.9766 6.93751 76.6016 7.91407C78.086 8.8047 79.086 9.6797 79.4532 10.3828C79.5547 10.5938 79.6563 11.0156 79.7188 11.4766L79.8125 12.2266L80.4922 12.5938C82.4766 13.6719 84.086 15.1016 86.3672 17.8281C86.9219 18.4844 87.7657 19.4766 88.25 20.0391C88.7266 20.5938 89.3282 21.3516 89.586 21.7188C89.8516 22.086 90.2266 22.5547 90.4219 22.75C90.6172 22.9531 90.7813 23.1485 90.7813 23.1797C90.7813 23.3281 90.461 23.75 90.3438 23.75C90.0938 23.75 89.6563 23.3047 88.9063 22.2969C88.4766 21.7266 87.8594 20.9531 87.5313 20.5703C87.2032 20.1953 86.586 19.461 86.1563 18.9453C84.8594 17.3906 83.6016 16.0235 82.7735 15.2891C81.9688 14.5703 80.5391 13.5703 79.9219 13.2891C78.0313 12.4453 77.7657 12.3516 76.0625 12.0313C75.0625 11.8438 74.4844 11.5938 73.0313 10.7188C71.5469 9.83595 71.0391 9.56251 70.4532 9.34376C68.2578 8.51564 65.1954 8.59376 61.3125 9.57814C60.8985 9.6797 60.4688 9.76564 60.3594 9.76564C60.1875 9.76564 60.0938 9.88282 59.7188 10.5234C58.6016 12.4375 57.1953 14.375 56.1875 15.375L55.5391 16.0235L55.8203 16.711C56.2344 17.75 56.2422 18.1016 55.9063 19.4531C55.7578 20.0781 55.5938 20.9688 55.5469 21.4375C55.4688 22.2656 55.4766 22.3047 55.6641 22.7188C55.9141 23.2578 55.9141 23.4141 55.6563 23.5313C55.461 23.6172 55.4297 23.6094 55.2188 23.3594C54.836 22.8985 54.75 22.4453 54.8438 21.3672C54.8828 20.8516 55.0078 20.0781 55.1172 19.6485C55.5391 18.0313 55.5313 17.836 55.0235 16.6641L54.7344 16.0078L53.9922 15.6094C52.961 15.0625 51.7891 14.375 51.625 14.2344C51.4532 14.086 51.4453 13.875 51.6094 13.711C51.7735 13.5547 51.8282 13.5703 52.9688 14.2266C54.1328 14.8906 54.961 15.3125 55.1016 15.3125C55.2891 15.3125 55.9375 14.6797 56.5547 13.9063C57.4063 12.8359 59.2188 10.1016 59.4141 9.59376C59.4532 9.50001 59.2266 9.28907 58.6172 8.83595C57.6563 8.10939 57.0313 7.77345 56.3985 7.64064L55.961 7.5547L55.1094 8.00782C54.6407 8.25782 53.5547 8.8672 52.6953 9.35939C51.836 9.85157 50.7969 10.4219 50.3907 10.6328C49.7266 10.9688 49.5313 11.1172 48.5157 12.125C47.2344 13.3906 46.9453 13.836 46.4532 15.3203C46.0625 16.4766 45.9844 17.0781 46.0391 18.5938C46.0938 19.9922 46.2188 20.7422 46.6797 22.2891C46.9766 23.3203 46.9688 23.4688 46.5547 23.5547C46.2657 23.6172 46.0313 23.4297 45.7188 22.8906C45.6094 22.6953 45.3516 22.3281 45.1563 22.0703C44.9532 21.8125 44.6719 21.4297 44.5313 21.2188C44.2422 20.7891 43.75 19.6797 43.75 19.4453C43.75 19.2735 44.0703 19.0391 44.2344 19.1016C44.2969 19.125 44.461 19.4297 44.6094 19.7656C44.8672 20.4063 45.2891 21.1406 45.3594 21.0703C45.3828 21.0547 45.3594 20.8047 45.3125 20.5235C45.2735 20.2422 45.2032 19.7188 45.1641 19.3594C45.1094 18.8125 45.0547 18.6485 44.8203 18.2813C44.3047 17.4922 44.2657 17.461 43.5157 17.1953C43.0469 17.0235 42.5391 16.7578 41.9766 16.3828C41.0703 15.7735 40.9297 15.625 41.0625 15.4141C41.2657 15.086 41.3672 15.1094 42.1641 15.6406C42.586 15.9219 43.0703 16.2266 43.2422 16.3125C43.6719 16.5235 44.375 16.7266 44.375 16.6328C44.375 16.461 43.9766 15.9063 42.211 13.6172C41.8516 13.1563 41.8516 12.9609 42.2032 12.8438C42.3516 12.7969 42.4453 12.8672 42.7578 13.2109C43.2578 13.7578 44.6797 15.6485 44.9219 16.0781C45.0235 16.2578 45.1328 16.4063 45.1563 16.4063C45.1875 16.4063 45.2891 16.1172 45.3828 15.7578C45.6172 14.875 46.1797 13.5078 46.5313 12.9844C46.6875 12.7422 47.3672 11.9844 48.0391 11.2969C49.2891 10.0156 49.6719 9.54689 49.8282 9.07032C50.0235 8.4922 49.9766 8.42189 48.6797 7.4297C48.2735 7.1172 47.6875 6.64845 47.375 6.38282C47.0547 6.1172 46.461 5.71876 46.0391 5.50001C45.5782 5.26564 45.2657 5.0547 45.25 4.96876C45.2032 4.71876 45.3985 4.37501 45.5782 4.37501C45.8203 4.37501 47.086 5.00782 47.4766 5.32032C47.6563 5.46876 48.2891 5.96876 48.8828 6.43751C50.375 7.6172 50.6953 7.93751 50.7578 8.3047C50.7813 8.46095 50.8282 8.6172 50.8594 8.63282C50.9219 8.67189 51.7266 7.72657 52.0078 7.28907C52.125 7.1172 52.1172 7.09376 51.7578 6.78126C51.4297 6.4922 51.2735 6.23439 50.6407 4.92189C49.9063 3.40626 49.8907 3.39064 49.1875 2.69532C47.9922 1.51564 47.0625 1.09376 45.5469 1.04689C44.9375 1.02345 44.5078 1.0547 44.2032 1.13282ZM66.7344 13.1016C66.8125 13.1719 66.875 13.2735 66.875 13.3203C66.875 13.375 66.5547 13.7656 66.1563 14.1875C65.1797 15.2422 65.0391 15.6016 65.2422 16.4844C65.4766 17.4688 65.2891 18.6328 64.6875 20.0078C64.5079 20.4141 64.3438 20.7969 64.3125 20.8594C64.2891 20.9219 64.6641 20.6016 65.1407 20.1406C65.8047 19.5078 66.1563 19.2344 66.586 19.0313C67.5 18.5781 67.8828 18.5156 69.6563 18.5156C71.4766 18.5156 71.8907 18.6016 72.7266 19.1406C74.7266 20.4375 76.1719 23.0703 76.7188 26.4297C76.7969 26.8906 76.875 27.2891 76.8907 27.3047C76.9141 27.3281 77.1875 27.1485 77.5078 26.9063C78.2344 26.3594 78.5391 26.2031 79.1563 26.0547C79.8203 25.8985 79.9141 25.9063 80 26.1328C80.1172 26.4453 80.0157 26.5469 79.4219 26.7266C78.6875 26.9453 78.5625 27.0156 77.6485 27.711C76.7266 28.4063 76.6563 28.586 77.211 28.8281C77.3907 28.9063 77.711 28.9922 77.9141 29.0235C78.3516 29.0938 78.4766 29.25 78.375 29.625L78.3047 29.8828L77.7813 29.8672C77.1953 29.8594 76.5782 29.6094 76.25 29.2578C76.086 29.0781 76.0625 28.961 76 28.086C75.8438 25.6016 75.2188 23.5235 74.1094 21.7969C73.375 20.6641 72.2578 19.7188 71.3672 19.4922C70.8047 19.3516 68.8203 19.3281 68.0547 19.461C67.0547 19.6406 66.75 19.836 65.2813 21.2344C63.9454 22.5235 63.3907 22.8438 61.6797 23.3594C60.625 23.6719 60.4922 23.6719 60.3438 23.3125C60.1797 22.9141 60.25 22.8594 61.4454 22.5C61.9844 22.336 62.5079 22.1485 62.6016 22.086C62.836 21.9297 63.6875 20.4922 64.0547 19.6406C64.5391 18.5078 64.6407 18.0156 64.5704 17.1719C64.4532 15.7813 64.4766 15.3125 64.6797 14.8906C64.8907 14.461 66.2813 12.9688 66.4688 12.9688C66.5313 12.9688 66.6563 13.0234 66.7344 13.1016ZM41.586 44.1328C41.836 44.3906 42.0313 44.6719 42.0313 44.7578C42.0313 44.8985 41.6953 45.2344 41.5547 45.2344C41.4375 45.2344 40.8672 44.6875 40.6953 44.3985L40.5313 44.1328L40.75 43.8985C40.8672 43.7735 41.0078 43.6719 41.0547 43.6719C41.1094 43.6719 41.3438 43.8828 41.586 44.1328ZM52.4375 48.8828C52.3985 50.0391 52.5157 50.4297 53.125 51.2422C53.6485 51.9297 53.7032 52.1406 53.3907 52.2813C53.1875 52.375 53.1563 52.3594 52.7578 51.9141C52.5235 51.6563 52.2032 51.1875 52.0469 50.8672C51.7578 50.2813 51.7578 50.2735 51.7578 49.2969C51.7657 48.1485 51.8282 47.9453 52.211 47.9844L52.461 48.0078L52.4375 48.8828ZM25.1563 57.0156C26.2422 57.7578 27.5547 58.7422 27.7657 58.9766C27.8828 59.1094 27.8907 59.1563 27.8125 59.2578C27.6407 59.461 27.4766 59.3906 26.6797 58.7813C26.25 58.4531 25.4141 57.8516 24.8125 57.4375C24.2188 57.0235 23.711 56.6328 23.6875 56.5703C23.6328 56.4297 23.8828 56.25 24.0469 56.3047C24.125 56.3281 24.6172 56.6485 25.1563 57.0156Z" fill="#9DC4FF"/>
<path d="M36.1328 1.53907C35.6094 1.72657 35.5547 1.72657 34.7266 1.64845C32.7578 1.45314 30.4531 1.58595 28.6016 2.00001C25.586 2.66407 22.5313 4.21876 20.3281 6.19533C19.9844 6.50783 19.7735 6.64064 19.625 6.64064C19.125 6.64064 17.2188 7.4922 16.25 8.14845C15.4297 8.70314 14.2422 9.76564 12.8359 11.1953C11.1953 12.8594 11.1953 12.8672 9.85938 13.2109C9.54688 13.2891 9.24219 13.3828 9.18751 13.4141C9.12501 13.4453 8.57813 13.9453 7.96876 14.5156C7.35938 15.0859 6.59376 15.7344 6.26563 15.9531C5.47657 16.4844 4.53125 17.4453 3.92188 18.3438C3.35157 19.1719 2.55469 20.7891 2.1875 21.8438C2.05469 22.2422 1.71094 22.9609 1.4375 23.4453C0.546875 25.0234 0.210938 26.0078 0.203125 27.0703C0.203125 27.7266 0.304688 28.2188 0.507813 28.4766C0.625 28.6328 0.632813 28.625 0.796875 28.3985C1.02344 28.1016 1.15625 27.9688 1.42969 27.7735L1.64844 27.6172L1.4375 27.1485C1.26563 26.7735 1.21875 26.5313 1.1875 25.9063C1.16406 25.4531 1.19531 24.9453 1.24219 24.6953C1.53125 23.3438 3.67188 20.0234 4.71875 19.3047C5.38282 18.8438 6.64063 18.4844 8.35938 18.2422C8.85157 18.1797 9.33594 18.1016 9.43751 18.0781C9.57032 18.0547 9.68751 17.875 9.93751 17.3203C10.4219 16.2656 11.1484 14.8672 11.5078 14.3359C12.5938 12.7188 14.5703 10.75 16.0781 9.78126C16.8516 9.28908 17.4141 9.14064 18.5078 9.13283C20.0781 9.12501 20 9.16408 21.1485 8.00001C22.0938 7.03908 22.1953 6.96095 22.9688 6.58595C24.625 5.78908 25.9844 5.43751 27.3047 5.48439L28.086 5.50783L28.125 4.84376C28.1719 4.17189 28.25 3.9297 28.5391 3.60939C28.75 3.38283 28.875 3.39064 29.0313 3.64064C29.1563 3.82814 29.1563 3.85939 29 4.18751C28.875 4.43751 28.8281 4.6797 28.8281 5.07033V5.60158L29.0703 5.65626C29.2031 5.6797 30.461 5.70314 31.8672 5.70314C34.8516 5.70314 37.3282 5.81251 38.0625 5.96876C38.3438 6.03126 38.8438 6.20314 39.1719 6.35939C39.8672 6.6797 39.7891 6.7422 40.1485 5.58595C40.2813 5.15626 40.4766 4.67189 40.586 4.50783L40.7891 4.21095L40.5938 3.87501C40.2657 3.32033 39.7032 2.60157 39.2891 2.23439C38.8516 1.84376 38.4532 1.71876 37.6094 1.71876C37.1485 1.71876 37.1016 1.70314 37.0157 1.52345C36.9063 1.28907 36.8282 1.28907 36.1328 1.53907Z" fill="#9DC4FF"/>
<path d="M64.6485 4.47656C63.8829 4.79687 63.0547 5.3125 62.75 5.65625C62.5938 5.83594 62.4688 6.125 62.3516 6.57031C62.2579 6.92969 62.0938 7.50781 61.9922 7.85156C61.8907 8.1875 61.8125 8.48437 61.8282 8.49219C61.836 8.50781 62.2891 8.42969 62.8204 8.32031C65.5079 7.76562 68.0079 7.74219 69.9141 8.25C70.8516 8.49219 71.7422 8.91406 73.3594 9.88281C74.9219 10.8125 75.2735 10.9766 76.1094 11.1328C77.3985 11.3828 77.9141 11.5 78.4453 11.6797L78.9844 11.8672V11.5C78.9844 10.6719 78.3438 9.90625 76.8203 8.89844C75.9532 8.32812 74.211 7.41406 73.2813 7.04687C72.961 6.92187 72.2735 6.70312 71.7579 6.5625C70.6875 6.28125 69.5157 5.84375 67.3516 4.92187C66.5157 4.57031 65.7032 4.26562 65.5547 4.24219C65.3594 4.22656 65.086 4.28906 64.6485 4.47656Z" fill="#9DC4FF"/>
<path d="M15.7344 7.46875C14.4063 8.21875 12.5391 9.77344 11.0625 11.3594C10.5938 11.8594 10.2266 12.2813 10.25 12.3047C10.2657 12.3203 10.4219 12.2969 10.5938 12.25C10.836 12.1719 11.1953 11.8516 12.3907 10.6328C13.9141 9.07813 14.836 8.26562 15.9141 7.52344C16.2422 7.29687 16.4766 7.10937 16.4375 7.10937C16.3985 7.10937 16.0782 7.27344 15.7344 7.46875Z" fill="#9DC4FF"/>
<path d="M52.2813 7.8125C52.0547 8.11719 51.5859 8.70313 51.2422 9.10938C50.8984 9.50781 50.6406 9.84375 50.6719 9.84375C50.7188 9.84375 54.1875 7.89844 54.6797 7.59375C54.8672 7.47657 54.8672 7.47657 54.7188 7.41407C54.6328 7.38282 54.1406 7.33594 53.625 7.30469L52.6953 7.25L52.2813 7.8125Z" fill="#9DC4FF"/>
<path d="M89.6094 27.461C89.6094 27.5469 89.6641 27.8282 89.7266 28.086C89.7812 28.3438 89.9766 29.4219 90.1484 30.4766C90.4844 32.5157 90.6328 33.1172 91.2109 34.7266L91.5781 35.7422L91.4844 36.5235C91.3516 37.7579 91.0781 38.5001 90.4219 39.4922C90 40.1329 88.6641 41.4376 87.7812 42.0782L87.5625 42.2422L88.0312 42.8751C88.8828 44.0235 89.5391 45.3126 90 46.7579C90.0937 47.0547 90.2187 47.3516 90.2656 47.4063C90.4062 47.5547 91.7187 47.6797 92.7344 47.6329C93.2266 47.6172 94.4297 47.4688 95.4062 47.3047C96.3828 47.1485 97.2344 47.0313 97.2969 47.0547C97.4687 47.1251 97.5469 47.4922 97.414 47.6172C97.3515 47.6719 96.6406 47.836 95.8203 47.9688C95.0078 48.1094 94.3125 48.2344 94.2812 48.2501C94.25 48.2657 94.3437 48.5391 94.4844 48.8516C95.2265 50.4844 95.7265 52.5235 95.8281 54.2891L95.8828 55.3204L96.2656 54.9454C96.7265 54.5 97.2109 53.7813 97.6406 52.9297C97.9844 52.2422 98.8047 50.961 99.0078 50.7969C99.1719 50.6563 99.3672 50.7032 99.5078 50.9063C99.6015 51.0547 99.5781 51.1329 99.1562 51.7657C98.9062 52.1485 98.4844 52.875 98.2187 53.375C97.7656 54.2188 97.3906 54.7813 96.8047 55.4766L96.5703 55.7579L97.3125 56.5625C97.7187 57 98.1015 57.4766 98.1562 57.6094C98.25 57.836 98.2578 57.8438 98.3359 57.6954C98.4922 57.4063 98.9844 55.9141 99.1797 55.1641C99.5781 53.586 99.8984 51.2344 99.9765 49.3672L100.016 48.3829L99.6875 47.4922C99.3281 46.5391 98.5312 44.8751 98.4609 44.9454C98.4453 44.9688 98.4765 45.2579 98.5469 45.586C98.7265 46.4532 98.7109 46.6251 98.4765 46.6876C98.164 46.7657 98.0781 46.6876 97.9297 46.1563C97.7109 45.3672 97.6953 44.4219 97.8906 43.1251C98.1328 41.4922 98.2187 39.9922 98.1328 38.8751C98.0234 37.4766 97.9062 37.1797 97.2578 36.5391C96.9609 36.2422 96.6875 36.0313 96.6406 36.0547C96.6015 36.0782 96.5625 36.336 96.5625 36.6251C96.5625 37.3751 96.3672 38.4454 96.0937 39.2579C95.7422 40.2891 95.5234 41.3516 95.5156 42.1094C95.5078 42.7579 95.5 42.7735 95.289 42.8438C94.9844 42.9532 94.8281 42.7657 94.7812 42.2501C94.7422 41.7188 95.0234 40.1876 95.3281 39.3126C95.6562 38.3672 95.789 37.6641 95.8359 36.6251C95.8828 35.711 95.8828 35.7032 95.6328 35.1954C95.3281 34.586 94.1719 33.0313 91.6484 29.8438C89.4922 27.1251 89.6094 27.2579 89.6094 27.461Z" fill="#9DC4FF"/>
<path d="M1.57814 28.6094C1.44533 28.75 1.28127 29 1.21095 29.1641C1.14845 29.3203 0.968765 29.6406 0.82814 29.8672C0.500015 30.3828 0.343765 30.7422 0.148452 31.4609C-0.0390476 32.1719 -0.0390476 32.4453 0.156265 33.3438C0.382828 34.3672 0.492202 34.6875 1.02345 35.7422C1.53908 36.7891 2.21877 37.7734 3.01564 38.6563L3.54689 39.2422L3.79689 40.2344C4.10939 41.4844 4.42189 42.2266 4.9922 43.1016C6.87502 45.9453 10.6406 48.0703 15.5781 49.0703C16.211 49.2031 16.75 49.2891 16.7656 49.2734C16.7891 49.2578 16.8672 48.6484 16.9531 47.9219C17.0391 47.1953 17.1328 46.5 17.1563 46.3828C17.211 46.1016 17.1016 45.9766 16.5391 45.6953L16.086 45.4609L15.6328 45.875C15.3906 46.1016 14.961 46.4141 14.6875 46.5547C14.25 46.7891 14.1094 46.8281 13.6641 46.8203C13.3828 46.8203 13.1094 46.7969 13.0547 46.7656C12.9219 46.6797 12.9453 46.1953 13.0938 46.1406C13.1641 46.1172 13.3906 46.0938 13.6094 46.0938C14.0938 46.0938 14.5703 45.875 15.0703 45.4219L15.4297 45.0938L15.0938 44.7188C14.9141 44.5078 14.5 44.0156 14.1875 43.6328C13.625 42.9453 13.6016 42.9219 12.961 42.6797C12.6016 42.5391 12.0391 42.2656 11.7188 42.0703C11.3985 41.8828 11.086 41.7188 11.0313 41.7188C10.9688 41.7188 10.3516 41.9766 9.66408 42.2969C7.8047 43.1484 7.76564 43.1641 6.71877 43.1484C6.22658 43.1406 5.64845 43.0859 5.4297 43.0313C5.07814 42.9297 5.03908 42.8984 5.01564 42.6875C4.97658 42.3203 5.14064 42.2344 5.67189 42.3438C6.32814 42.4844 7.33595 42.4609 7.82814 42.3047C8.35939 42.125 9.72658 41.4922 9.67189 41.4453C9.65627 41.4219 9.3047 41.3438 8.89845 41.2578C8.4922 41.1719 7.96877 41.0313 7.73439 40.9453C6.29689 40.3984 3.89064 37.6172 3.3047 35.8203C3.12502 35.2734 3.10158 35.0313 3.06252 33.8281C3.01564 31.8828 3.1797 31.2344 3.97658 30.3594C4.19533 30.1172 4.37502 29.9063 4.37502 29.8906C4.37502 29.875 4.14845 29.7266 3.8672 29.5703C3.58595 29.4141 3.10158 29.0781 2.77345 28.8281C2.43752 28.5547 2.10939 28.3594 2.00783 28.3594C1.90627 28.3594 1.71877 28.4688 1.57814 28.6094Z" fill="#9DC4FF"/>
<path d="M98.6796 37.4687C98.6796 37.5547 98.7031 37.5781 98.7265 37.5156C98.7499 37.4609 98.7421 37.3906 98.7187 37.3672C98.6953 37.3359 98.6718 37.3828 98.6796 37.4687Z" fill="#9DC4FF"/>
<path d="M98.7891 37.9688C98.9531 39.3672 98.9063 41.3516 98.6641 42.7891L98.5781 43.2735L99.1016 44.4453C99.8125 46.0391 99.8828 46.0782 99.8125 44.8828C99.6563 42.211 99.4453 40.4297 99.0938 38.836C98.8672 37.8281 98.7188 37.4063 98.7891 37.9688Z" fill="#9DC4FF"/>
<path d="M15.3125 43.5938C15.3125 43.8438 17.1641 45.1485 17.3516 45.0313C17.4375 44.9844 17.75 44.2813 17.7031 44.2422C17.6875 44.2266 17.2891 44.1094 16.8281 43.9844C16.3594 43.8594 15.8281 43.711 15.6484 43.6406C15.4609 43.5781 15.3125 43.5547 15.3125 43.5938Z" fill="#9DC4FF"/>
<path d="M95.8046 56.4219C95.3359 56.9063 94.1484 58.6876 94.0937 58.9766C94.0625 59.1329 94.0781 59.711 94.125 60.2735C94.2109 61.2813 94.1953 61.5548 93.9453 62.711C93.9062 62.8594 93.914 62.9688 93.9609 62.9688C94.0781 62.9688 94.9062 62.3751 95.4453 61.8985C96.0234 61.3907 96.8046 60.4766 97.2968 59.711C97.6171 59.211 97.6562 59.1094 97.6562 58.6954C97.6562 57.9376 97.5624 57.7423 96.7734 56.9219L96.0546 56.1563L95.8046 56.4219Z" fill="#9DC4FF"/>
<path d="M49.1016 62.9766C48.3203 63.0625 47.3125 63.2578 46.9766 63.3985C46.7344 63.5 46.7266 63.5235 46.8047 63.7266C46.9922 64.2422 47.8594 65.7266 48.3438 66.3672C49.0781 67.3438 49.7578 68.0469 50.6563 68.7656C51.086 69.1016 51.5313 69.5156 51.6485 69.6719C51.8672 69.9766 53.9531 73.5313 54.836 75.1094C55.6797 76.6172 57.5469 80.2891 57.8125 80.9766C58.3047 82.2266 58.9297 83.1719 59.7422 83.9063C60.1797 84.2891 61.1719 84.8438 61.4297 84.8438C61.5 84.8438 61.5781 84.875 61.6016 84.9219C61.6719 85.0313 61.9375 85.0235 62.4766 84.8906C62.7266 84.8281 63.0234 84.7578 63.1406 84.7344C63.4922 84.6563 63.5938 84.4844 63.5938 83.9922C63.5938 83.4141 63.3281 82.4844 62.4609 80.0703C62.0859 79.0235 61.7266 77.9219 61.6641 77.6172C61.6016 77.3203 61.5156 77.0313 61.4766 76.9766C61.4297 76.9219 61.0234 76.6875 60.5703 76.4453C58.711 75.461 56.1485 73.7266 55.3125 72.8906C54.461 72.0391 54.1563 71.3047 53.9453 69.6094C53.7578 68.1328 53.6563 67.836 52.7578 66.1016C52.2969 65.2188 51.7735 64.1406 51.6016 63.711L51.2735 62.9297L50.5 62.9219C50.0781 62.9141 49.4453 62.9375 49.1016 62.9766Z" fill="#9DC4FF"/>
<path d="M52.125 63.0234C52.1406 63.125 52.2891 63.1953 52.6563 63.2656C52.9375 63.3281 54.1875 63.6172 55.4297 63.9219C60.2031 65.0703 60.5625 65.1172 64.2735 65.0938C65.9766 65.086 67.1953 65.1094 67.2266 65.1485C67.2735 65.2266 67.0625 65.4688 66.9453 65.4688C66.9063 65.4688 66.875 65.5391 66.875 65.6172C66.875 65.75 66.9063 65.7656 67.125 65.6953C67.5078 65.586 67.7344 65.6094 67.7344 65.75C67.7344 65.9141 67.4141 66.0313 65.8516 66.4375C62.5781 67.2891 60.9844 67.3047 57.0391 66.5235C54.6328 66.0547 53.6719 65.9063 53.5781 66C53.5469 66.0313 53.5781 66.1563 53.6563 66.2813C53.7813 66.4922 53.8672 66.5235 54.7266 66.6953C59.211 67.5782 61.8125 67.625 66.6797 66.9063C68.1016 66.6953 68.5078 66.6016 69.2735 66.3203C69.6407 66.1797 69.7813 66.1563 69.8516 66.2266C69.9766 66.3516 69.8985 66.4375 69.4219 66.6641C68.8282 66.9453 68.2891 67.0703 66.7188 67.2969C63.9141 67.7032 63.1016 67.7657 60.8594 67.7657C58.5235 67.7735 57.7735 67.7032 55.6016 67.2657C53.9688 66.9375 53.9922 66.9297 54.7031 67.6172C55.7578 68.6329 56.5391 68.8985 58.6875 68.961C60.461 69.0157 61.4688 68.9219 64.5703 68.3985C69.836 67.5157 70.2813 67.5078 73.75 68.2735C74.5 68.4454 75.3282 68.6172 75.586 68.6719C75.8438 68.7188 76.1329 68.7735 76.2344 68.7969C76.5469 68.8594 76.4141 68.6875 75.6875 68.086C74.3516 66.9922 73.6875 66.6875 70.9375 65.9453C69.9688 65.6797 69.0313 65.4141 68.8516 65.3438C68.5235 65.2266 68.4141 65.0313 68.6172 64.9531C68.7344 64.9063 71.8282 65.7344 73.0235 66.1328C74.375 66.586 75.1329 67.0547 76.6016 68.3516C77.2969 68.961 77.4922 69.0235 78.5001 68.9688L78.9922 68.9454L77.9141 67.8438C76.0625 65.961 74.8438 65.3281 71.8907 64.7266C70.836 64.5156 70.5938 64.4219 70.6563 64.25C70.711 64.1016 70.25 64.1016 69.8594 64.2578C69.5938 64.3672 69.3672 64.375 68.1172 64.2969C66.4922 64.2109 62.3828 64.2109 63.2031 64.2969C63.4844 64.3281 64.1328 64.3594 64.6485 64.3672C65.8672 64.3828 66.1719 64.4297 66.1719 64.6172C66.1719 64.7578 66.0938 64.7656 65.0625 64.7656C61.9766 64.7578 59.6485 64.3594 57.3281 63.4531C56.8438 63.2578 56.6016 63.2187 55.7031 63.1719C55.125 63.1406 54.2422 63.0625 53.75 63C53.2578 62.9375 52.6875 62.8906 52.4766 62.8906C52.1563 62.8906 52.1016 62.9141 52.125 63.0234Z" fill="#9DC4FF"/>
<path d="M60.7188 63.0077C60.7578 63.0546 62.7656 63.2734 64.2578 63.3906C64.6406 63.4218 64.6797 63.414 64.4531 63.3593C63.7344 63.1718 60.5938 62.8749 60.7188 63.0077Z" fill="#9DC4FF"/>
<path d="M58.1641 63.1251L57.7734 63.1719L58.0078 63.2735C58.7656 63.5938 61.3828 64.2188 61.9922 64.2188C62.2031 64.2188 62.25 64.1954 62.2109 64.0938C62.1328 63.8907 62.3359 63.8282 63.1641 63.8204L63.9453 63.8047L62.6563 63.6641C60.3125 63.3985 60.0625 63.3594 60.0234 63.1954C59.9844 63.0626 59.9063 63.0469 59.2656 63.0626C58.875 63.0626 58.3828 63.0938 58.1641 63.1251Z" fill="#9DC4FF"/>
<path d="M52.3438 63.7499C52.3438 63.9687 52.8047 64.2187 53.8438 64.5546C56.7423 65.5077 59.4532 65.9218 62.2188 65.8359C63.422 65.8046 65.2735 65.6093 65.3751 65.5156C65.3907 65.4999 64.2813 65.4687 62.9141 65.4452C59.8594 65.4062 59.8438 65.3984 54.6485 64.1484C52.6563 63.664 52.3438 63.6093 52.3438 63.7499Z" fill="#9DC4FF"/>
<path d="M71.9532 63.9453C71.8907 63.9609 71.6328 64 71.3828 64.0234C71.1328 64.0547 70.9375 64.0859 70.9532 64.1016C70.9688 64.1172 71.4922 64.2422 72.1094 64.375C73.6875 64.7031 74.4375 64.9453 75.4297 65.4297C76.5313 65.9766 77.2891 66.5781 78.5547 67.9375C79.2422 68.6719 79.6406 69.0391 79.7891 69.0703C80.0625 69.1328 80.1094 69.1797 80.0547 69.336C79.9922 69.4766 79.586 69.4844 78.0078 69.375C76.625 69.2734 75.7032 69.125 73.9922 68.7422C71.9219 68.2734 70.961 68.125 69.9063 68.125C68.9688 68.125 67.5 68.2656 67.5 68.3516C67.5 68.3828 67.75 68.4531 68.0547 68.5078C68.3672 68.5625 69.4766 68.8203 70.5235 69.0703C73.5157 69.7969 73.3907 69.7813 76.5235 69.75C79.0547 69.7266 79.2578 69.7344 79.2813 69.8594C79.2969 69.9531 79.2344 70.0156 79.086 70.0547C78.6953 70.1641 73.2969 70.1328 72.7735 70.0156C72.5157 69.9531 71.4453 69.7031 70.3907 69.4531C69.336 69.2031 68.1641 68.9375 67.7735 68.875C65.8516 68.5391 66.1953 68.5391 64.2032 68.8594C63.2032 69.0234 62.3125 69.1797 62.2266 69.2109C62.1094 69.2578 62.1875 69.3125 62.6172 69.4531C62.9219 69.5469 63.7813 69.875 64.5313 70.1719C66.1719 70.8281 68.4844 71.5078 68.2578 71.2735C68.2188 71.2422 67.3594 70.7891 66.3438 70.2735C65.0235 69.6094 64.4844 69.2969 64.461 69.1875C64.4375 69.0625 64.4688 69.0469 64.6953 69.0938C64.8438 69.1172 65.8438 69.586 66.9141 70.1172C69.4688 71.3906 69.3125 71.3594 72.5782 71.3594C73.9766 71.3672 75.8907 71.3281 76.836 71.2891C78.5078 71.2188 78.5313 71.211 77.7735 71.1563C77.3438 71.125 75.5547 71.0703 73.7891 71.0235C70.586 70.9453 70.2032 70.9141 69.1797 70.6563C68.211 70.4141 66.0547 69.4375 65.7891 69.1094C65.6719 68.9688 65.8047 68.6719 65.9766 68.6719C66.0469 68.6719 66.3828 68.8281 66.7422 69.0156C67.7422 69.5547 69.0235 70.0469 69.9141 70.2266C70.625 70.375 71.2266 70.4141 74.7578 70.5078C78.6016 70.6172 78.8281 70.6328 79.6875 70.8203C81.0391 71.125 81.6172 71.461 81.3125 71.7656C81.1875 71.8906 81.1485 71.8906 80.7266 71.7344C80.1094 71.5078 79.0469 71.25 78.7735 71.2578C78.6563 71.2578 78.6016 71.2813 78.6563 71.3047C78.7031 71.3203 78.75 71.4063 78.75 71.4766C78.75 71.625 78.5469 71.6406 73.4375 71.7891C72.4688 71.8125 71.75 71.8594 71.836 71.8906C72.211 72.0156 73.9063 72.1406 75.3125 72.1328C76.7656 72.1328 77.5781 72.0547 79.3516 71.7656C80.0078 71.6641 80.211 71.6953 80.1328 71.8985C80.0781 72.0391 79.7188 72.1172 78.1563 72.3516C76.3906 72.6172 74.0391 72.586 71.5391 72.2735C69.5547 72.0156 67.8125 71.6953 66.6797 71.3672C66.2969 71.25 65.2188 70.8672 64.2969 70.5156C62.7188 69.8985 62.086 69.6797 61.6485 69.586C61.5391 69.5547 61.125 69.6563 60.6485 69.8203C60.086 70.0156 59.8047 70.0703 59.75 70.0156C59.625 69.8906 59.75 69.7656 60.1719 69.5781L60.5547 69.4063H59.1641C57.0704 69.3985 55.8282 69.0859 54.8672 68.3047C54.6407 68.1172 54.4375 67.9688 54.4141 67.9688C54.3907 67.9688 54.3907 68.0547 54.4219 68.1563C54.4454 68.2578 54.5079 68.6328 54.5704 68.9922C54.6563 69.5625 54.6719 69.6016 54.6797 69.2734C54.6875 69.0078 54.7266 68.8906 54.8125 68.8516C55.0079 68.7813 55.0547 68.9453 55.1172 69.7813C55.1641 70.4219 55.2188 70.6328 55.4375 71.1016C55.586 71.4063 55.7032 71.7188 55.7032 71.8047C55.7032 72.0235 55.5079 71.9844 55.3125 71.7344C55.1641 71.5469 55.1563 71.5391 55.2422 71.711C55.4219 72.0938 56.4454 73.0547 57.0235 73.3985C57.1875 73.4922 57.0704 73.3281 56.5782 72.7422C56.3438 72.4688 56.0313 71.9766 55.875 71.6563C55.625 71.1328 55.5938 70.9922 55.5625 70.2735C55.5391 69.6797 55.5547 69.461 55.625 69.4141C55.8047 69.3047 55.9375 69.6094 55.9375 70.1172C55.9375 71.1094 56.25 71.7735 57.2344 72.8985C57.6875 73.4063 57.8125 73.5938 57.7891 73.7422C57.7579 73.8985 57.8516 73.9922 58.5079 74.4141C59.6485 75.1563 61.3985 76.1407 62.0391 76.3985C62.8672 76.7266 63.2032 76.7813 62.461 76.461C60.1407 75.4766 58.3594 74.2422 57.6719 73.1485C57.25 72.4766 56.3282 70.125 56.3282 69.7266C56.3282 69.3672 56.6094 69.5703 56.7969 70.0781C56.9688 70.5313 57.0313 70.5235 57.0313 70.0625C57.0313 69.625 57.125 69.4375 57.2813 69.5938C57.3204 69.6328 57.3907 70.0235 57.4219 70.461C57.5079 71.4375 57.6641 71.7344 58.5625 72.625C60.2266 74.2813 63.3203 75.7578 66.6641 76.4766C67.4844 76.6563 69.375 76.8985 69.4375 76.836C69.461 76.8125 69.461 76.7969 69.4453 76.7969C69.2891 76.7969 66.4844 76.2813 65.7813 76.125C62.5782 75.4063 61.1016 74.4063 58.6641 71.3047C57.875 70.2969 57.7032 70 57.8829 69.8906C57.9844 69.8203 58.1954 70.0391 58.7813 70.7969C59.0704 71.1719 59.3672 71.5156 59.4532 71.5625C59.5313 71.6016 60.0704 71.6406 60.6407 71.6406C61.7422 71.6406 63 71.7735 66.0157 72.2188C69.4844 72.7344 70.3672 72.8281 71.4453 72.7969C72.4141 72.7735 72.461 72.7813 72.461 72.9297C72.461 73.0625 72.3907 73.0938 71.9922 73.1485C71.0703 73.2735 69.5625 73.1485 65.9219 72.625C62.3047 72.1016 60.8282 71.9453 60.9766 72.086C61.086 72.1953 63.0391 72.8906 64.1797 73.2266C66.6485 73.961 67.461 74.086 69.1797 74.0157C70.586 73.961 71.0078 74.0078 72.7344 74.4141C73.3594 74.5625 74.211 74.7032 74.6328 74.7344C75.1016 74.7657 75.4219 74.8282 75.4766 74.8907C75.836 75.3282 74.4453 75.2422 72.1485 74.6797C71.1641 74.4453 71.0625 74.4375 69.0235 74.3985C66.9375 74.3594 66.8985 74.3594 65.836 74.0938C63.5703 73.5313 60.5157 72.4766 60.3204 72.1875C60.2188 72.0391 59.8438 71.961 59.8438 72.0938C59.8438 72.2031 60.2969 72.6016 60.6641 72.8047C60.8594 72.9141 61.3047 73.2031 61.6563 73.4453C62.5938 74.0782 63.3828 74.3516 65.8203 74.875C68.4844 75.4532 70.8828 75.7344 73.086 75.7344C74.4063 75.7344 74.6407 75.711 75.1953 75.5469C75.9141 75.3438 76.2578 75.3125 76.3047 75.4532C76.3516 75.5703 75.836 75.8125 75.1485 75.9844C74.7266 76.0938 74.3203 76.1094 72.4219 76.0703C70.5547 76.0391 69.9766 76 68.8282 75.8282C66.4141 75.461 63.7188 74.8672 62.6485 74.4532C62.1094 74.25 62.3204 74.4297 63.0469 74.8047C64.0938 75.336 65.6641 75.75 68.1563 76.1719C71.4141 76.7188 73.211 76.6953 75.5469 76.0938C76.5 75.8438 76.7188 75.8516 76.6172 76.1172C76.5703 76.25 75.3828 76.5938 74.375 76.7657C73.9688 76.836 73.6172 76.9063 73.6016 76.9219C73.5 77.0235 74.9063 76.9219 75.8672 76.7657C76.4844 76.6641 77.1563 76.5547 77.3594 76.5235C77.8125 76.461 78.7735 76.1485 78.8047 76.0469C78.8203 76.0078 78.5391 75.875 78.1797 75.7578C76.5703 75.2032 73.8282 73.7266 73.0313 72.9844C72.8047 72.7735 72.7422 72.5 72.9141 72.5C72.9766 72.5 73.336 72.7266 73.7188 73C74.961 73.8907 77.2891 75.0625 78.8047 75.5547L79.5938 75.8125L80.1016 75.5938C81.0235 75.2032 81.0547 75.25 79.4766 74.625C78.711 74.3125 77.6016 73.9375 77.0235 73.7813C75.2344 73.3047 74.8203 73.1641 74.7344 73.0313C74.6953 72.961 74.6797 72.8672 74.711 72.836C74.7813 72.7735 76.6953 73.2422 77.8906 73.6172C78.2969 73.7422 79.0703 74.0235 79.6094 74.2344C81.1563 74.8516 81.3828 74.9219 81.6016 74.8438C81.8828 74.7344 81.8438 74.6485 81.4453 74.5C80.5156 74.1407 78.6953 72.4219 79.2422 72.4219C79.3047 72.4219 79.6953 72.7266 80.125 73.0938C80.6641 73.5625 81.0938 73.8594 81.5313 74.0703C81.8828 74.2422 82.2188 74.375 82.2813 74.375C82.3985 74.375 82.9688 73.9297 82.9688 73.836C82.9688 73.7266 81.5703 73.1172 80.6485 72.8203C79.7656 72.5469 79.4375 72.3281 79.7188 72.2188C79.9063 72.1485 81.1953 72.5469 82.1875 72.9766C83.4922 73.5547 83.4297 73.5547 83.8985 72.9219C84.5547 72.0313 85.0781 71.0156 85.0781 70.6485C85.0781 70.1641 84.711 68.2734 84.5313 67.8125C84.1485 66.8516 83.5 66.0781 82.2735 65.1406C81.4141 64.4766 81.0313 64.3359 80.2891 64.3906L79.961 64.4141L80.5469 64.7578C82.3438 65.8203 83.4844 67.0625 83.9063 68.4375C84.3047 69.7188 84.5625 70.8594 84.461 70.961C84.2891 71.1328 84.1563 70.836 83.8281 69.6094C83.4219 68.0469 83.1875 67.5859 82.4219 66.7656C81.6406 65.9453 81.211 65.6172 80.0235 64.9297C79.086 64.3828 79.0547 64.375 78.5156 64.375C78.2188 64.375 77.9688 64.4062 77.9688 64.4453C77.9688 64.4844 78.2656 64.6641 78.6328 64.8516C79.8125 65.4531 80.6719 66.2109 82.1797 68.0078C82.9297 68.8906 83.1797 69.2734 83.7422 70.3281C84.1875 71.1485 84.2578 71.5078 83.9688 71.4688C83.8438 71.4531 83.7578 71.3438 83.6641 71.0938C83.4766 70.586 82.7891 69.4219 82.3047 68.7891C81.6328 67.9141 80.3906 66.5625 79.8047 66.0703C78.9063 65.3203 76.4219 64.1719 75.9922 64.3203C75.8672 64.3594 77.2422 65.2578 78.4297 65.8906C78.961 66.1797 79.586 66.5391 79.8047 66.6875C80.3828 67.0703 81.3203 68.0234 81.6953 68.6094C82.2969 69.5547 83.1328 71.0938 83.086 71.1719C82.9219 71.4375 82.6797 71.1485 81.8281 69.625C80.9219 67.9922 80.2969 67.375 78.5938 66.4375C77.0469 65.5859 76.2031 65.0703 75.6328 64.6172C75.0625 64.1641 75.0469 64.1562 74.3438 64.0703C73.5313 63.9766 72.125 63.8984 71.9532 63.9453Z" fill="#9DC4FF"/>
<path d="M52.8126 64.75C52.8126 64.7812 52.9141 64.9687 53.0313 65.164L53.2579 65.5078L54.1485 65.6093C54.6407 65.664 55.5469 65.8125 56.1719 65.9453C60.375 66.8359 62.1797 66.9062 64.7657 66.289C66.7657 65.8125 66.7813 65.7734 64.8438 66.0312C63.1407 66.2656 60.0079 66.2812 58.5547 66.0703C56.8438 65.8125 54.7813 65.3203 53.4063 64.8515C52.8985 64.6718 52.8126 64.6562 52.8126 64.75Z" fill="#9DC4FF"/>
<path d="M82.7344 64.9766C82.8828 65.0859 83.3047 65.4844 83.6719 65.8516C84.6641 66.8516 84.9375 67.4453 85.3125 69.3985C85.4609 70.1641 85.5703 69.8594 85.5313 68.7813C85.4922 67.8594 85.4766 67.7813 85.2109 67.25C85.0156 66.8594 84.6797 66.3984 84.1328 65.8047C83.3438 64.9297 83.1094 64.7656 82.6172 64.7656C82.4922 64.7656 82.5156 64.8047 82.7344 64.9766Z" fill="#9DC4FF"/>
<path d="M85.336 64.8984C85.1954 64.914 85.0782 64.9453 85.0782 64.9687C85.0782 64.9843 85.2657 65.2578 85.4922 65.5703C85.9922 66.25 86.3282 66.789 86.5626 67.3047C86.7266 67.6719 86.7422 67.6875 86.7969 67.5C86.9688 66.9609 86.7188 65.5859 86.3594 65.0156C86.2422 64.8359 86.0235 64.8124 85.336 64.8984Z" fill="#9DC4FF"/>
<path d="M83.9844 64.9766C83.9844 65.0157 84.2344 65.3204 84.5391 65.6641C85.5547 66.8047 85.8204 67.3126 85.9063 68.2813C85.9376 68.5782 85.9766 68.8282 86.0001 68.8282C86.1094 68.8282 86.4844 68.3907 86.4844 68.2657C86.4844 67.8204 84.9219 65.211 84.5235 64.9922C84.3594 64.9063 83.9844 64.8985 83.9844 64.9766Z" fill="#9DC4FF"/>
<path d="M57.8906 72.7343C58.2265 73.3515 59.3203 74.3593 60.2734 74.9218C61.664 75.7421 63.6015 76.539 64.5468 76.6796C65.039 76.75 65.1406 76.8281 65.0234 77.0234C64.9297 77.164 64.9531 77.1875 65.3515 77.2656C65.5859 77.3125 66.7031 77.3906 67.8281 77.4296C68.9609 77.4687 70.0938 77.5312 70.3516 77.5703C71.2109 77.7031 72.6328 77.6484 73.5078 77.4531C73.961 77.3515 73.4219 77.3125 70.9609 77.2578C68.75 77.2109 68.1719 77.1796 67.4219 77.039C63.6093 76.3203 60.3437 74.875 58.3906 73.0234C57.7109 72.3906 57.7109 72.3906 57.8906 72.7343Z" fill="#9DC4FF"/>
</g>
<defs>
<clipPath id="clip0">
<rect width="100" height="85" fill="white"/>
</clipPath>
</defs>
</svg>
