<svg width="140" height="140" viewBox="0 0 140 140" fill="none" xmlns="http://www.w3.org/2000/svg">
<g clip-path="url(#clip0)">
<path d="M72.8216 29.2325C71.9339 27.2284 70.1436 24.8166 68.6936 23.724C68.357 23.4703 67.9289 23.1477 67.2721 22.7836L93.5968 25.9337C94.4474 26.0405 95.4907 26.4289 96.2583 27.0074C97.027 27.5866 97.7703 28.5445 98.1085 29.3335L103.198 41.1799L110.729 37.9119L97.0857 56.7324L74.0256 53.5027L81.7067 50.2171L72.8216 29.2325ZM118.254 76.2858C119.848 80.0216 119.39 83.818 116.954 87.0507C114.322 90.5439 110.648 92.0485 105.858 91.5066L98.8234 90.7454L89.0231 67.6052L110.728 58.4671L118.254 76.2858ZM51.0372 27.4983C54.6938 22.6459 61.71 21.6603 66.5623 25.3167C67.9249 26.3435 69.7754 28.6753 70.5796 30.6165L73.3812 36.9947L58.1735 57.176L39.3577 42.9973L51.0371 27.4982L51.0372 27.4983ZM105.679 94.0428C108.852 94.4329 111.671 93.8875 114.064 92.4858L98.2823 113.428C96.8705 115.302 95.0122 116.168 92.9189 115.932L80.1519 114.453L79.2419 122.575L69.8646 101.355L84.0439 83.0798L82.9783 91.2197L105.679 94.0428ZM33.1712 89.9998C31.2487 92.5511 30.3243 95.1953 30.3376 98.0065L19.9074 73.5906C19.1031 71.6494 19.4035 69.4779 20.7502 67.6908L28.2598 57.7252L21.7042 52.7852L44.8087 55.2471L53.5478 76.781L46.9047 71.7752L33.1714 89.9999L33.1712 89.9998ZM42.3417 109.717C40.4002 109.459 38.6321 108.796 37.0988 107.641C34.033 105.331 32.2747 100.932 32.7961 97.0579C33.0747 95.2624 33.9967 93.1505 35.3404 91.3673L39.5784 85.7433L64.5187 88.7921L61.5459 112.047L42.3417 109.717Z" fill="#9DC4FF"/>
</g>
<defs>
<clipPath id="clip0">
<rect width="100" height="97.6541" fill="white" transform="translate(139.086 59.2802) rotate(127)"/>
</clipPath>
</defs>
</svg>
