<svg width="2421" height="392" viewBox="0 0 2421 392" fill="none" xmlns="http://www.w3.org/2000/svg">
<line x1="19.5582" y1="236.354" x2="213.756" y2="377.821" stroke="white" stroke-width="15" stroke-linecap="round" stroke-linejoin="round"/>
<path d="M161.512 34.0791L362.08 178" stroke="white" stroke-width="15" stroke-linecap="round" stroke-linejoin="round"/>
<path d="M362.709 178.57L217.58 380.5" stroke="white" stroke-width="15" stroke-linecap="round" stroke-linejoin="round"/>
<line x1="160.642" y1="34.491" x2="14.4908" y2="231.769" stroke="white" stroke-width="15" stroke-linecap="round" stroke-linejoin="round"/>
<path d="M360.443 177.965C233.684 269.074 158.441 282.531 16.08 233" stroke="white" stroke-width="15" stroke-linecap="round" stroke-linejoin="round"/>
<path d="M16.78 233.019C143.702 144.646 218.808 131.271 360.471 178.11" stroke="white" stroke-width="15" stroke-linecap="round" stroke-linejoin="round"/>
<path d="M238.58 206.5C238.58 235.589 216.281 258.5 189.58 258.5C162.879 258.5 140.58 235.589 140.58 206.5C140.58 177.411 162.879 154.5 189.58 154.5C216.281 154.5 238.58 177.411 238.58 206.5Z" stroke="white" stroke-width="15"/>
<path d="M503.78 313V142.9H532.48V313H503.78ZM518.48 107.9C512.88 107.9 508.097 106.15 504.13 102.65C500.397 99.15 498.53 94.7166 498.53 89.35C498.53 83.75 500.397 79.3166 504.13 76.05C508.097 72.55 512.88 70.8 518.48 70.8C524.08 70.8 528.747 72.55 532.48 76.05C536.447 79.3166 538.43 83.75 538.43 89.35C538.43 94.7166 536.447 99.15 532.48 102.65C528.747 106.15 524.08 107.9 518.48 107.9ZM589.913 313V142.9H613.713L616.163 167.4H617.213C625.38 159.233 633.896 152.467 642.763 147.1C651.863 141.5 662.363 138.7 674.263 138.7C692.23 138.7 705.296 144.3 713.463 155.5C721.863 166.7 726.063 183.267 726.063 205.2V313H697.363V209.05C697.363 192.95 694.796 181.4 689.663 174.4C684.53 167.167 676.363 163.55 665.163 163.55C656.296 163.55 648.48 165.767 641.713 170.2C634.946 174.633 627.246 181.167 618.613 189.8V313H589.913ZM834.869 317.2C825.769 317.2 818.069 315.8 811.769 313C805.702 310.2 800.686 306.35 796.719 301.45C792.986 296.55 790.302 290.6 788.669 283.6C787.036 276.6 786.219 268.9 786.219 260.5V166.35H761.019V144.65L787.619 142.9L791.119 95.3H815.269V142.9H861.119V166.35H815.269V260.85C815.269 271.35 817.136 279.517 820.869 285.35C824.836 290.95 831.719 293.75 841.519 293.75C844.552 293.75 847.819 293.283 851.319 292.35C854.819 291.417 857.969 290.367 860.769 289.2L866.369 310.9C861.702 312.533 856.569 313.933 850.969 315.1C845.602 316.5 840.236 317.2 834.869 317.2ZM963.746 317.2C952.312 317.2 941.579 315.217 931.546 311.25C921.746 307.05 913.112 301.217 905.646 293.75C898.412 286.05 892.696 276.717 888.496 265.75C884.296 254.783 882.196 242.3 882.196 228.3C882.196 214.3 884.296 201.817 888.496 190.85C892.929 179.65 898.646 170.2 905.646 162.5C912.879 154.8 921.046 148.967 930.146 145C939.246 140.8 948.696 138.7 958.496 138.7C969.229 138.7 978.796 140.567 987.196 144.3C995.829 148.033 1002.95 153.4 1008.55 160.4C1014.38 167.4 1018.81 175.8 1021.85 185.6C1024.88 195.4 1026.4 206.367 1026.4 218.5C1026.4 221.533 1026.28 224.567 1026.05 227.6C1026.05 230.4 1025.81 232.85 1025.35 234.95H910.546C911.712 253.15 917.312 267.617 927.346 278.35C937.612 288.85 950.912 294.1 967.246 294.1C975.412 294.1 982.879 292.933 989.646 290.6C996.646 288.033 1003.3 284.767 1009.6 280.8L1019.75 299.7C1012.28 304.367 1004 308.45 994.896 311.95C985.796 315.45 975.412 317.2 963.746 317.2ZM910.196 214.3H1001.2C1001.2 197.033 997.462 183.967 989.996 175.1C982.762 166 972.496 161.45 959.196 161.45C953.129 161.45 947.296 162.617 941.696 164.95C936.329 167.283 931.429 170.783 926.996 175.45C922.562 179.883 918.829 185.367 915.796 191.9C912.996 198.433 911.129 205.9 910.196 214.3ZM1068.43 313V142.9H1092.23L1094.68 173.7H1095.73C1101.56 162.967 1108.56 154.45 1116.73 148.15C1125.13 141.85 1134.23 138.7 1144.03 138.7C1150.8 138.7 1156.86 139.867 1162.23 142.2L1156.63 167.4C1153.83 166.467 1151.26 165.767 1148.93 165.3C1146.6 164.833 1143.68 164.6 1140.18 164.6C1132.95 164.6 1125.36 167.517 1117.43 173.35C1109.73 179.183 1102.96 189.333 1097.13 203.8V313H1068.43ZM1189.77 384.75V142.9H1213.57L1216.02 162.5H1217.07C1224.77 155.967 1233.17 150.367 1242.27 145.7C1251.6 141.033 1261.28 138.7 1271.32 138.7C1282.28 138.7 1291.97 140.8 1300.37 145C1308.77 148.967 1315.77 154.8 1321.37 162.5C1326.97 169.967 1331.17 179.067 1333.97 189.8C1337 200.3 1338.52 212.2 1338.52 225.5C1338.52 239.967 1336.53 252.917 1332.57 264.35C1328.6 275.55 1323.23 285.117 1316.47 293.05C1309.7 300.983 1301.88 307.05 1293.02 311.25C1284.15 315.217 1274.82 317.2 1265.02 317.2C1257.08 317.2 1249.15 315.45 1241.22 311.95C1233.52 308.45 1225.7 303.667 1217.77 297.6L1218.47 327.35V384.75H1189.77ZM1260.12 293.05C1267.12 293.05 1273.53 291.533 1279.37 288.5C1285.43 285.233 1290.57 280.8 1294.77 275.2C1299.2 269.367 1302.58 262.25 1304.92 253.85C1307.48 245.45 1308.77 236 1308.77 225.5C1308.77 216.167 1307.95 207.65 1306.32 199.95C1304.68 192.25 1302 185.717 1298.27 180.35C1294.77 174.75 1290.1 170.433 1284.27 167.4C1278.67 164.367 1271.9 162.85 1263.97 162.85C1256.73 162.85 1249.38 164.833 1241.92 168.8C1234.68 172.767 1226.87 178.483 1218.47 185.95V275.2C1226.17 281.733 1233.63 286.4 1240.87 289.2C1248.1 291.767 1254.52 293.05 1260.12 293.05ZM1450.06 317.2C1439.56 317.2 1429.52 315.217 1419.96 311.25C1410.62 307.283 1402.34 301.567 1395.11 294.1C1387.87 286.4 1382.04 277.067 1377.61 266.1C1373.41 254.9 1371.31 242.3 1371.31 228.3C1371.31 214.067 1373.41 201.467 1377.61 190.5C1382.04 179.3 1387.87 169.85 1395.11 162.15C1402.34 154.45 1410.62 148.617 1419.96 144.65C1429.52 140.683 1439.56 138.7 1450.06 138.7C1460.56 138.7 1470.47 140.683 1479.81 144.65C1489.37 148.617 1497.77 154.45 1505.01 162.15C1512.24 169.85 1517.96 179.3 1522.16 190.5C1526.59 201.467 1528.81 214.067 1528.81 228.3C1528.81 242.3 1526.59 254.9 1522.16 266.1C1517.96 277.067 1512.24 286.4 1505.01 294.1C1497.77 301.567 1489.37 307.283 1479.81 311.25C1470.47 315.217 1460.56 317.2 1450.06 317.2ZM1450.06 293.4C1457.29 293.4 1463.94 291.883 1470.01 288.85C1476.07 285.583 1481.21 281.15 1485.41 275.55C1489.84 269.717 1493.22 262.833 1495.56 254.9C1497.89 246.967 1499.06 238.1 1499.06 228.3C1499.06 218.5 1497.89 209.633 1495.56 201.7C1493.22 193.533 1489.84 186.533 1485.41 180.7C1481.21 174.867 1476.07 170.433 1470.01 167.4C1463.94 164.133 1457.29 162.5 1450.06 162.5C1442.82 162.5 1436.17 164.133 1430.11 167.4C1424.04 170.433 1418.79 174.867 1414.36 180.7C1410.16 186.533 1406.89 193.533 1404.56 201.7C1402.22 209.633 1401.06 218.5 1401.06 228.3C1401.06 238.1 1402.22 246.967 1404.56 254.9C1406.89 262.833 1410.16 269.717 1414.36 275.55C1418.79 281.15 1424.04 285.583 1430.11 288.85C1436.17 291.883 1442.82 293.4 1450.06 293.4ZM1604.05 317.2C1593.09 317.2 1585.27 313.933 1580.6 307.4C1575.94 300.867 1573.6 291.3 1573.6 278.7V63.8H1602.3V280.8C1602.3 285.467 1603.12 288.733 1604.75 290.6C1606.39 292.467 1608.25 293.4 1610.35 293.4C1611.29 293.4 1612.1 293.4 1612.8 293.4C1613.74 293.4 1615.02 293.167 1616.65 292.7L1620.5 314.4C1618.64 315.333 1616.42 316.033 1613.85 316.5C1611.29 316.967 1608.02 317.2 1604.05 317.2ZM1702.01 317.2C1687.78 317.2 1675.88 313 1666.31 304.6C1656.98 296.2 1652.31 284.3 1652.31 268.9C1652.31 250.233 1660.6 236 1677.16 226.2C1693.73 216.167 1720.21 209.167 1756.61 205.2C1756.61 199.833 1756.03 194.583 1754.86 189.45C1753.93 184.317 1752.18 179.767 1749.61 175.8C1747.05 171.833 1743.43 168.683 1738.76 166.35C1734.33 163.783 1728.61 162.5 1721.61 162.5C1711.81 162.5 1702.6 164.367 1693.96 168.1C1685.33 171.833 1677.63 176.033 1670.86 180.7L1659.66 160.75C1667.6 155.617 1677.28 150.717 1688.71 146.05C1700.15 141.15 1712.75 138.7 1726.51 138.7C1747.28 138.7 1762.33 145.117 1771.66 157.95C1781 170.55 1785.66 187.467 1785.66 208.7V313H1761.86L1759.41 292.7H1758.36C1750.2 299.467 1741.45 305.3 1732.11 310.2C1722.78 314.867 1712.75 317.2 1702.01 317.2ZM1710.41 294.1C1718.58 294.1 1726.28 292.233 1733.51 288.5C1740.75 284.533 1748.45 278.817 1756.61 271.35V224.1C1742.38 225.967 1730.36 228.183 1720.56 230.75C1711 233.317 1703.18 236.35 1697.11 239.85C1691.28 243.35 1686.96 247.433 1684.16 252.1C1681.6 256.533 1680.31 261.433 1680.31 266.8C1680.31 276.6 1683.23 283.6 1689.06 287.8C1694.9 292 1702.01 294.1 1710.41 294.1ZM1887.95 317.2C1878.85 317.2 1871.15 315.8 1864.85 313C1858.78 310.2 1853.76 306.35 1849.8 301.45C1846.06 296.55 1843.38 290.6 1841.75 283.6C1840.11 276.6 1839.3 268.9 1839.3 260.5V166.35H1814.1V144.65L1840.7 142.9L1844.2 95.3H1868.35V142.9H1914.2V166.35H1868.35V260.85C1868.35 271.35 1870.21 279.517 1873.95 285.35C1877.91 290.95 1884.8 293.75 1894.6 293.75C1897.63 293.75 1900.9 293.283 1904.4 292.35C1907.9 291.417 1911.05 290.367 1913.85 289.2L1919.45 310.9C1914.78 312.533 1909.65 313.933 1904.05 315.1C1898.68 316.5 1893.31 317.2 1887.95 317.2ZM2016.82 317.2C2005.39 317.2 1994.66 315.217 1984.62 311.25C1974.82 307.05 1966.19 301.217 1958.72 293.75C1951.49 286.05 1945.77 276.717 1941.57 265.75C1937.37 254.783 1935.27 242.3 1935.27 228.3C1935.27 214.3 1937.37 201.817 1941.57 190.85C1946.01 179.65 1951.72 170.2 1958.72 162.5C1965.96 154.8 1974.12 148.967 1983.22 145C1992.32 140.8 2001.77 138.7 2011.57 138.7C2022.31 138.7 2031.87 140.567 2040.27 144.3C2048.91 148.033 2056.02 153.4 2061.62 160.4C2067.46 167.4 2071.89 175.8 2074.92 185.6C2077.96 195.4 2079.47 206.367 2079.47 218.5C2079.47 221.533 2079.36 224.567 2079.12 227.6C2079.12 230.4 2078.89 232.85 2078.42 234.95H1963.62C1964.79 253.15 1970.39 267.617 1980.42 278.35C1990.69 288.85 2003.99 294.1 2020.32 294.1C2028.49 294.1 2035.96 292.933 2042.72 290.6C2049.72 288.033 2056.37 284.767 2062.67 280.8L2072.82 299.7C2065.36 304.367 2057.07 308.45 2047.97 311.95C2038.87 315.45 2028.49 317.2 2016.82 317.2ZM1963.27 214.3H2054.27C2054.27 197.033 2050.54 183.967 2043.07 175.1C2035.84 166 2025.57 161.45 2012.27 161.45C2006.21 161.45 2000.37 162.617 1994.77 164.95C1989.41 167.283 1984.51 170.783 1980.07 175.45C1975.64 179.883 1971.91 185.367 1968.87 191.9C1966.07 198.433 1964.21 205.9 1963.27 214.3ZM2179.6 317.2C2158.14 317.2 2140.99 309.5 2128.15 294.1C2115.55 278.7 2109.25 256.767 2109.25 228.3C2109.25 214.533 2111.24 202.167 2115.2 191.2C2119.4 180 2124.89 170.55 2131.65 162.85C2138.42 155.15 2146.24 149.2 2155.1 145C2163.97 140.8 2173.3 138.7 2183.1 138.7C2192.9 138.7 2201.42 140.45 2208.65 143.95C2215.89 147.45 2223.24 152.233 2230.7 158.3L2229.3 129.25V63.8H2258.35V313H2234.55L2232.1 293.05H2231.05C2224.29 299.583 2216.47 305.3 2207.6 310.2C2198.97 314.867 2189.64 317.2 2179.6 317.2ZM2185.9 293.05C2193.84 293.05 2201.3 291.183 2208.3 287.45C2215.3 283.483 2222.3 277.533 2229.3 269.6V180.7C2222.07 174.167 2215.07 169.617 2208.3 167.05C2201.77 164.25 2195 162.85 2188 162.85C2181.24 162.85 2174.82 164.483 2168.75 167.75C2162.92 170.783 2157.79 175.217 2153.35 181.05C2148.92 186.65 2145.42 193.417 2142.85 201.35C2140.29 209.283 2139 218.15 2139 227.95C2139 248.483 2143.09 264.467 2151.25 275.9C2159.42 287.333 2170.97 293.05 2185.9 293.05Z" fill="white"/>
</svg>
